%TF.GenerationSoftware,KiCad,Pcbnew,(6.0.4)*%
%TF.CreationDate,2023-03-05T21:30:01+09:00*%
%TF.ProjectId,VFD__esp32,56464442-0865-4737-9033-322e6b696361,rev?*%
%TF.SameCoordinates,Original*%
%TF.FileFunction,Soldermask,Bot*%
%TF.FilePolarity,Negative*%
%FSLAX46Y46*%
G04 Gerber Fmt 4.6, Leading zero omitted, Abs format (unit mm)*
G04 Created by KiCad (PCBNEW (6.0.4)) date 2023-03-05 21:30:01*
%MOMM*%
%LPD*%
G01*
G04 APERTURE LIST*
G04 Aperture macros list*
%AMRoundRect*
0 Rectangle with rounded corners*
0 $1 Rounding radius*
0 $2 $3 $4 $5 $6 $7 $8 $9 X,Y pos of 4 corners*
0 Add a 4 corners polygon primitive as box body*
4,1,4,$2,$3,$4,$5,$6,$7,$8,$9,$2,$3,0*
0 Add four circle primitives for the rounded corners*
1,1,$1+$1,$2,$3*
1,1,$1+$1,$4,$5*
1,1,$1+$1,$6,$7*
1,1,$1+$1,$8,$9*
0 Add four rect primitives between the rounded corners*
20,1,$1+$1,$2,$3,$4,$5,0*
20,1,$1+$1,$4,$5,$6,$7,0*
20,1,$1+$1,$6,$7,$8,$9,0*
20,1,$1+$1,$8,$9,$2,$3,0*%
G04 Aperture macros list end*
%ADD10C,1.500000*%
%ADD11C,0.800000*%
%ADD12C,6.400000*%
%ADD13C,1.600000*%
%ADD14O,1.600000X1.600000*%
%ADD15C,1.440000*%
%ADD16C,2.100000*%
%ADD17C,1.750000*%
%ADD18C,1.524000*%
%ADD19R,1.600000X1.600000*%
%ADD20R,3.500000X3.500000*%
%ADD21RoundRect,0.750000X-1.000000X0.750000X-1.000000X-0.750000X1.000000X-0.750000X1.000000X0.750000X0*%
%ADD22RoundRect,0.875000X-0.875000X0.875000X-0.875000X-0.875000X0.875000X-0.875000X0.875000X0.875000X0*%
%ADD23R,1.800000X1.800000*%
%ADD24O,1.800000X1.800000*%
%ADD25R,1.700000X1.700000*%
%ADD26O,1.700000X1.700000*%
%ADD27C,2.000000*%
G04 APERTURE END LIST*
D10*
%TO.C,R15*%
X162765000Y-109855000D03*
X166165000Y-109855000D03*
%TD*%
D11*
%TO.C,H2*%
X207945056Y-112187056D03*
X203848000Y-110490000D03*
X208648000Y-110490000D03*
X204550944Y-108792944D03*
X207945056Y-108792944D03*
X206248000Y-108090000D03*
X204550944Y-112187056D03*
X206248000Y-112890000D03*
D12*
X206248000Y-110490000D03*
%TD*%
D13*
%TO.C,R21*%
X91440000Y-134493000D03*
D14*
X91440000Y-149733000D03*
%TD*%
D13*
%TO.C,R22*%
X95250000Y-134493000D03*
D14*
X95250000Y-149733000D03*
%TD*%
D11*
%TO.C,H1*%
X203848000Y-154051000D03*
X204550944Y-152353944D03*
X208648000Y-154051000D03*
X204550944Y-155748056D03*
X206248000Y-156451000D03*
X207945056Y-155748056D03*
X206248000Y-151651000D03*
D12*
X206248000Y-154051000D03*
D11*
X207945056Y-152353944D03*
%TD*%
D15*
%TO.C,RV2*%
X154230000Y-128285000D03*
X151690000Y-130825000D03*
X154230000Y-133365000D03*
%TD*%
D16*
%TO.C,SW5*%
X200335000Y-111152500D03*
X193325000Y-111152500D03*
D17*
X194575000Y-108662500D03*
X199075000Y-108662500D03*
%TD*%
D11*
%TO.C,H3*%
X95872000Y-110490000D03*
X95169056Y-108792944D03*
X93472000Y-112890000D03*
D12*
X93472000Y-110490000D03*
D11*
X93472000Y-108090000D03*
X91774944Y-108792944D03*
X91774944Y-112187056D03*
X95169056Y-112187056D03*
X91072000Y-110490000D03*
%TD*%
D13*
%TO.C,R19*%
X168275000Y-140970000D03*
D14*
X168275000Y-156210000D03*
%TD*%
D18*
%TO.C,U12*%
X126440000Y-146225000D03*
X124440000Y-144975000D03*
X121940000Y-144975000D03*
X119940000Y-145975000D03*
X118940000Y-147975000D03*
X118940000Y-150475000D03*
X119940000Y-152475000D03*
X121940000Y-153475000D03*
X124440000Y-153475000D03*
X126440000Y-152475000D03*
X127440000Y-150475000D03*
X127440000Y-147975000D03*
%TD*%
D13*
%TO.C,R18*%
X208407000Y-134239000D03*
D14*
X208407000Y-149479000D03*
%TD*%
D19*
%TO.C,C1*%
X126617349Y-121920000D03*
D13*
X130117349Y-121920000D03*
%TD*%
D15*
%TO.C,RV1*%
X165810000Y-119365000D03*
X168350000Y-116825000D03*
X165810000Y-114285000D03*
%TD*%
D13*
%TO.C,R8*%
X204978000Y-134239000D03*
D14*
X204978000Y-149479000D03*
%TD*%
D20*
%TO.C,J3*%
X122242500Y-115570000D03*
D21*
X122242500Y-109570000D03*
D22*
X117542500Y-112570000D03*
%TD*%
D18*
%TO.C,U14*%
X109930000Y-146225000D03*
X107930000Y-144975000D03*
X105430000Y-144975000D03*
X103430000Y-145975000D03*
X102430000Y-147975000D03*
X102430000Y-150475000D03*
X103430000Y-152475000D03*
X105430000Y-153475000D03*
X107930000Y-153475000D03*
X109930000Y-152475000D03*
X110930000Y-150475000D03*
X110930000Y-147975000D03*
%TD*%
D13*
%TO.C,R20*%
X132715000Y-141224000D03*
D14*
X132715000Y-156464000D03*
%TD*%
D18*
%TO.C,U9*%
X145490000Y-146225000D03*
X143490000Y-144975000D03*
X140990000Y-144975000D03*
X138990000Y-145975000D03*
X137990000Y-147975000D03*
X137990000Y-150475000D03*
X138990000Y-152475000D03*
X140990000Y-153475000D03*
X143490000Y-153475000D03*
X145490000Y-152475000D03*
X146490000Y-150475000D03*
X146490000Y-147975000D03*
%TD*%
%TO.C,U7*%
X181050000Y-146225000D03*
X179050000Y-144975000D03*
X176550000Y-144975000D03*
X174550000Y-145975000D03*
X173550000Y-147975000D03*
X173550000Y-150475000D03*
X174550000Y-152475000D03*
X176550000Y-153475000D03*
X179050000Y-153475000D03*
X181050000Y-152475000D03*
X182050000Y-150475000D03*
X182050000Y-147975000D03*
%TD*%
D23*
%TO.C,Q1*%
X141605000Y-126625000D03*
D24*
X139065000Y-126625000D03*
X136525000Y-126625000D03*
%TD*%
D16*
%TO.C,SW4*%
X181895000Y-111152500D03*
X188905000Y-111152500D03*
D17*
X183145000Y-108662500D03*
X187645000Y-108662500D03*
%TD*%
D19*
%TO.C,C9*%
X161925000Y-134872349D03*
D13*
X161925000Y-138372349D03*
%TD*%
D18*
%TO.C,U8*%
X162000000Y-146225000D03*
X160000000Y-144975000D03*
X157500000Y-144975000D03*
X155500000Y-145975000D03*
X154500000Y-147975000D03*
X154500000Y-150475000D03*
X155500000Y-152475000D03*
X157500000Y-153475000D03*
X160000000Y-153475000D03*
X162000000Y-152475000D03*
X163000000Y-150475000D03*
X163000000Y-147975000D03*
%TD*%
D25*
%TO.C,J1*%
X138455000Y-122555000D03*
D26*
X138455000Y-120015000D03*
X138455000Y-117475000D03*
X138455000Y-114935000D03*
X138455000Y-112395000D03*
X138455000Y-109855000D03*
%TD*%
D27*
%TO.C,SW1*%
X130465000Y-114375000D03*
X130465000Y-107875000D03*
X134965000Y-107875000D03*
X134965000Y-114375000D03*
%TD*%
D11*
%TO.C,H4*%
X91072000Y-154051000D03*
X93472000Y-151651000D03*
X95169056Y-152353944D03*
X91774944Y-155748056D03*
X91774944Y-152353944D03*
X95169056Y-155748056D03*
X93472000Y-156451000D03*
D12*
X93472000Y-154051000D03*
D11*
X95872000Y-154051000D03*
%TD*%
D16*
%TO.C,SW3*%
X170465000Y-111152500D03*
X177475000Y-111152500D03*
D17*
X171715000Y-108662500D03*
X176215000Y-108662500D03*
%TD*%
D18*
%TO.C,U5*%
X197560000Y-146225000D03*
X195560000Y-144975000D03*
X193060000Y-144975000D03*
X191060000Y-145975000D03*
X190060000Y-147975000D03*
X190060000Y-150475000D03*
X191060000Y-152475000D03*
X193060000Y-153475000D03*
X195560000Y-153475000D03*
X197560000Y-152475000D03*
X198560000Y-150475000D03*
X198560000Y-147975000D03*
%TD*%
M02*
