M48
; DRILL file {KiCad (6.0.4)} date Sun Mar  5 21:30:06 2023
; FORMAT={-:-/ absolute / inch / decimal}
; #@! TF.CreationDate,2023-03-05T21:30:06+09:00
; #@! TF.GenerationSoftware,Kicad,Pcbnew,(6.0.4)
; #@! TF.FileFunction,MixedPlating,1,2
FMAT,2
INCH
; #@! TA.AperFunction,Plated,PTH,ViaDrill
T1C0.0157
; #@! TA.AperFunction,Plated,PTH,ComponentDrill
T2C0.0197
; #@! TA.AperFunction,Plated,PTH,ComponentDrill
T3C0.0300
; #@! TA.AperFunction,Plated,PTH,ComponentDrill
T4C0.0315
; #@! TA.AperFunction,Plated,PTH,ComponentDrill
T5C0.0390
; #@! TA.AperFunction,Plated,PTH,ComponentDrill
T6C0.0394
; #@! TA.AperFunction,Plated,PTH,ComponentDrill
T7C0.0433
; #@! TA.AperFunction,Plated,PTH,ComponentDrill
T8C0.0512
; #@! TA.AperFunction,Plated,PTH,ComponentDrill
T9C0.1260
%
G90
G05
T1
X3.55Y-4.95
X3.725Y-5.075
X3.725Y-5.15
X3.975Y-4.65
X4.0Y-4.5215
X4.075Y-5.075
X4.175Y-4.65
X4.175Y-6.175
X4.225Y-6.15
X4.4Y-4.6
X4.4Y-5.075
X4.5Y-5.4
X4.575Y-5.375
X4.625Y-4.65
X4.8Y-6.15
X4.875Y-6.1313
X4.925Y-5.1
X4.9535Y-5.0722
X5.1241Y-4.8954
X5.125Y-4.9785
X5.15Y-4.925
X5.2Y-5.0535
X5.425Y-6.1465
X5.5Y-4.7
X5.5Y-6.1465
X5.525Y-4.425
X5.525Y-4.5
X5.525Y-4.825
X5.525Y-5.45
X5.575Y-5.45
X5.625Y-6.1136
X5.678Y-4.7285
X5.7Y-5.025
X5.725Y-4.825
X5.75Y-4.4288
X5.75Y-4.55
X5.7509Y-4.6704
X5.775Y-4.25
X5.8006Y-4.6419
X5.833Y-4.6195
X5.9Y-4.6184
X6.075Y-4.7035
X6.075Y-6.1215
X6.1885Y-4.3874
X6.1889Y-6.1361
X6.2Y-4.425
X6.325Y-4.9215
X6.325Y-6.15
X6.3481Y-4.8645
X6.35Y-4.5
X6.375Y-4.4215
X6.375Y-4.9215
X6.4077Y-4.8577
X6.425Y-4.8
X6.425Y-5.075
X6.45Y-4.5
X6.475Y-4.4
X6.475Y-5.2
X6.525Y-5.225
X6.55Y-4.45
X6.5666Y-5.0217
X6.6Y-4.775
X6.625Y-5.15
X6.7Y-5.0035
X6.7673Y-4.7278
X6.7991Y-4.7046
X6.825Y-4.675
X6.825Y-6.1215
X6.85Y-4.775
X6.925Y-6.1465
X6.95Y-5.275
X6.95Y-5.35
X6.975Y-4.725
X7.0Y-5.05
X7.0Y-5.425
X7.025Y-6.1642
X7.15Y-6.1785
X7.175Y-5.7
X7.25Y-5.5715
X7.275Y-5.6285
X7.275Y-6.1465
X7.4Y-5.625
X7.5Y-5.4
X7.575Y-4.95
X7.575Y-6.1535
X7.6Y-4.6
X7.65Y-4.5
X7.65Y-4.725
X7.7Y-6.1
X7.775Y-4.8285
X7.8Y-5.5
X7.8Y-5.6
X7.85Y-4.75
X7.85Y-5.525
X7.9Y-4.575
X7.9Y-5.55
X7.925Y-4.475
X8.0Y-5.825
X8.0Y-5.95
T2
X3.5855Y-4.35
X3.5855Y-6.065
X3.6132Y-4.2832
X3.6132Y-4.4168
X3.6132Y-5.9982
X3.6132Y-6.1318
X3.68Y-4.2555
X3.68Y-4.4445
X3.68Y-5.9705
X3.68Y-6.1595
X3.7468Y-4.2832
X3.7468Y-4.4168
X3.7468Y-5.9982
X3.7468Y-6.1318
X3.7745Y-4.35
X3.7745Y-6.065
X8.0255Y-4.35
X8.0255Y-6.065
X8.0532Y-4.2832
X8.0532Y-4.4168
X8.0532Y-5.9982
X8.0532Y-6.1318
X8.12Y-4.2555
X8.12Y-4.4445
X8.12Y-5.9705
X8.12Y-6.1595
X8.1868Y-4.2832
X8.1868Y-4.4168
X8.1868Y-5.9982
X8.1868Y-6.1318
X8.2145Y-4.35
X8.2145Y-6.065
T3
X4.0327Y-5.8258
X4.0327Y-5.9242
X4.072Y-5.747
X4.072Y-6.003
X4.1508Y-5.7077
X4.1508Y-6.0423
X4.2492Y-5.7077
X4.2492Y-6.0423
X4.328Y-5.7569
X4.328Y-6.003
X4.3673Y-5.8258
X4.3673Y-5.9242
X4.6827Y-5.8258
X4.6827Y-5.9242
X4.722Y-5.747
X4.722Y-6.003
X4.8008Y-5.7077
X4.8008Y-6.0423
X4.8992Y-5.7077
X4.8992Y-6.0423
X4.978Y-5.7569
X4.978Y-6.003
X5.0173Y-5.8258
X5.0173Y-5.9242
X5.4327Y-5.8258
X5.4327Y-5.9242
X5.472Y-5.747
X5.472Y-6.003
X5.5508Y-5.7077
X5.5508Y-6.0423
X5.6492Y-5.7077
X5.6492Y-6.0423
X5.728Y-5.7569
X5.728Y-6.003
X5.7673Y-5.8258
X5.7673Y-5.9242
X6.0827Y-5.8258
X6.0827Y-5.9242
X6.122Y-5.747
X6.122Y-6.003
X6.2008Y-5.7077
X6.2008Y-6.0423
X6.2992Y-5.7077
X6.2992Y-6.0423
X6.378Y-5.7569
X6.378Y-6.003
X6.4173Y-5.8258
X6.4173Y-5.9242
X6.8327Y-5.8258
X6.8327Y-5.9242
X6.872Y-5.747
X6.872Y-6.003
X6.9508Y-5.7077
X6.9508Y-6.0423
X7.0492Y-5.7077
X7.0492Y-6.0423
X7.128Y-5.7569
X7.128Y-6.003
X7.1673Y-5.8258
X7.1673Y-5.9242
X7.4827Y-5.8258
X7.4827Y-5.9242
X7.522Y-5.747
X7.522Y-6.003
X7.6008Y-5.7077
X7.6008Y-6.0423
X7.6992Y-5.7077
X7.6992Y-6.0423
X7.778Y-5.7569
X7.778Y-6.003
X7.8173Y-5.8258
X7.8173Y-5.9242
T4
X3.6Y-5.295
X3.6Y-5.895
X3.75Y-5.295
X3.75Y-5.895
X4.9849Y-4.8
X5.1227Y-4.8
X5.225Y-5.56
X5.225Y-6.16
X5.972Y-5.1506
X6.072Y-5.0506
X6.072Y-5.2506
X6.375Y-5.3099
X6.375Y-5.4477
X6.4081Y-4.325
X6.528Y-4.4994
X6.528Y-4.6994
X6.5419Y-4.325
X6.625Y-5.55
X6.625Y-6.15
X6.628Y-4.5994
X8.07Y-5.285
X8.07Y-5.885
X8.205Y-5.285
X8.205Y-5.885
T5
X6.7604Y-4.2781
X6.9376Y-4.2781
X7.2104Y-4.2781
X7.3876Y-4.2781
X7.6604Y-4.2781
X7.8376Y-4.2781
T6
X5.375Y-4.9852
X5.451Y-4.325
X5.451Y-4.425
X5.451Y-4.525
X5.451Y-4.625
X5.451Y-4.725
X5.451Y-4.825
X5.475Y-4.9852
X5.575Y-4.9852
T7
X5.1364Y-4.247
X5.1364Y-4.503
X5.3136Y-4.247
X5.3136Y-4.503
T8
X6.7112Y-4.3761
X6.9872Y-4.3761
X7.1612Y-4.3761
X7.4372Y-4.3761
X7.6112Y-4.3761
X7.8872Y-4.3761
T9
X3.68Y-4.35
X3.68Y-6.065
X8.12Y-4.35
X8.12Y-6.065
T6
G00X4.6277Y-4.3925
M15
G01X4.6277Y-4.4713
M16
G05
G00X4.8521Y-4.3138
M15
G01X4.7733Y-4.3138
M16
G05
G00X4.8521Y-4.55
M15
G01X4.7733Y-4.55
M16
G05
T0
M30
