%TF.GenerationSoftware,KiCad,Pcbnew,(6.0.4)*%
%TF.CreationDate,2023-03-05T21:30:01+09:00*%
%TF.ProjectId,VFD__esp32,56464442-0865-4737-9033-322e6b696361,rev?*%
%TF.SameCoordinates,Original*%
%TF.FileFunction,Legend,Top*%
%TF.FilePolarity,Positive*%
%FSLAX46Y46*%
G04 Gerber Fmt 4.6, Leading zero omitted, Abs format (unit mm)*
G04 Created by KiCad (PCBNEW (6.0.4)) date 2023-03-05 21:30:01*
%MOMM*%
%LPD*%
G01*
G04 APERTURE LIST*
G04 Aperture macros list*
%AMRoundRect*
0 Rectangle with rounded corners*
0 $1 Rounding radius*
0 $2 $3 $4 $5 $6 $7 $8 $9 X,Y pos of 4 corners*
0 Add a 4 corners polygon primitive as box body*
4,1,4,$2,$3,$4,$5,$6,$7,$8,$9,$2,$3,0*
0 Add four circle primitives for the rounded corners*
1,1,$1+$1,$2,$3*
1,1,$1+$1,$4,$5*
1,1,$1+$1,$6,$7*
1,1,$1+$1,$8,$9*
0 Add four rect primitives between the rounded corners*
20,1,$1+$1,$2,$3,$4,$5,0*
20,1,$1+$1,$4,$5,$6,$7,0*
20,1,$1+$1,$6,$7,$8,$9,0*
20,1,$1+$1,$8,$9,$2,$3,0*%
G04 Aperture macros list end*
%ADD10C,0.150000*%
%ADD11C,0.120000*%
%ADD12C,1.500000*%
%ADD13RoundRect,0.200000X-0.275000X0.200000X-0.275000X-0.200000X0.275000X-0.200000X0.275000X0.200000X0*%
%ADD14C,0.800000*%
%ADD15C,6.400000*%
%ADD16C,1.600000*%
%ADD17O,1.600000X1.600000*%
%ADD18C,1.440000*%
%ADD19RoundRect,0.200000X-0.200000X-0.275000X0.200000X-0.275000X0.200000X0.275000X-0.200000X0.275000X0*%
%ADD20C,2.100000*%
%ADD21C,1.750000*%
%ADD22R,1.200000X0.900000*%
%ADD23R,3.850000X4.000000*%
%ADD24RoundRect,0.225000X-0.225000X-0.250000X0.225000X-0.250000X0.225000X0.250000X-0.225000X0.250000X0*%
%ADD25C,1.524000*%
%ADD26RoundRect,0.225000X0.225000X0.250000X-0.225000X0.250000X-0.225000X-0.250000X0.225000X-0.250000X0*%
%ADD27RoundRect,0.225000X-0.250000X0.225000X-0.250000X-0.225000X0.250000X-0.225000X0.250000X0.225000X0*%
%ADD28R,0.900000X1.200000*%
%ADD29R,1.600000X1.600000*%
%ADD30R,3.500000X3.500000*%
%ADD31RoundRect,0.750000X-1.000000X0.750000X-1.000000X-0.750000X1.000000X-0.750000X1.000000X0.750000X0*%
%ADD32RoundRect,0.875000X-0.875000X0.875000X-0.875000X-0.875000X0.875000X-0.875000X0.875000X0.875000X0*%
%ADD33R,1.200000X2.200000*%
%ADD34R,5.800000X6.400000*%
%ADD35RoundRect,0.150000X0.150000X-0.875000X0.150000X0.875000X-0.150000X0.875000X-0.150000X-0.875000X0*%
%ADD36RoundRect,0.200000X0.275000X-0.200000X0.275000X0.200000X-0.275000X0.200000X-0.275000X-0.200000X0*%
%ADD37R,2.000000X0.900000*%
%ADD38R,0.900000X2.000000*%
%ADD39R,5.000000X5.000000*%
%ADD40RoundRect,0.150000X-0.725000X-0.150000X0.725000X-0.150000X0.725000X0.150000X-0.725000X0.150000X0*%
%ADD41RoundRect,0.187500X0.812500X0.187500X-0.812500X0.187500X-0.812500X-0.187500X0.812500X-0.187500X0*%
%ADD42R,1.800000X1.800000*%
%ADD43O,1.800000X1.800000*%
%ADD44RoundRect,0.150000X-0.150000X0.875000X-0.150000X-0.875000X0.150000X-0.875000X0.150000X0.875000X0*%
%ADD45RoundRect,0.218750X-0.256250X0.218750X-0.256250X-0.218750X0.256250X-0.218750X0.256250X0.218750X0*%
%ADD46RoundRect,0.200000X0.200000X0.275000X-0.200000X0.275000X-0.200000X-0.275000X0.200000X-0.275000X0*%
%ADD47R,1.700000X1.700000*%
%ADD48O,1.700000X1.700000*%
%ADD49C,2.000000*%
%ADD50R,0.600000X1.500000*%
G04 APERTURE END LIST*
D10*
X207206904Y-123335476D02*
X208006904Y-123145000D01*
X207435476Y-122992619D01*
X208006904Y-122840238D01*
X207206904Y-122649761D01*
X208006904Y-122345000D02*
X207473571Y-122345000D01*
X207206904Y-122345000D02*
X207245000Y-122383095D01*
X207283095Y-122345000D01*
X207245000Y-122306904D01*
X207206904Y-122345000D01*
X207283095Y-122345000D01*
X207587857Y-121697380D02*
X207587857Y-121964047D01*
X208006904Y-121964047D02*
X207206904Y-121964047D01*
X207206904Y-121583095D01*
X208006904Y-121278333D02*
X207473571Y-121278333D01*
X207206904Y-121278333D02*
X207245000Y-121316428D01*
X207283095Y-121278333D01*
X207245000Y-121240238D01*
X207206904Y-121278333D01*
X207283095Y-121278333D01*
X208006904Y-119945000D02*
X207206904Y-119945000D01*
X207968809Y-119945000D02*
X208006904Y-120021190D01*
X208006904Y-120173571D01*
X207968809Y-120249761D01*
X207930714Y-120287857D01*
X207854523Y-120325952D01*
X207625952Y-120325952D01*
X207549761Y-120287857D01*
X207511666Y-120249761D01*
X207473571Y-120173571D01*
X207473571Y-120021190D01*
X207511666Y-119945000D01*
X208006904Y-119564047D02*
X207473571Y-119564047D01*
X207206904Y-119564047D02*
X207245000Y-119602142D01*
X207283095Y-119564047D01*
X207245000Y-119525952D01*
X207206904Y-119564047D01*
X207283095Y-119564047D01*
X207968809Y-119221190D02*
X208006904Y-119145000D01*
X208006904Y-118992619D01*
X207968809Y-118916428D01*
X207892619Y-118878333D01*
X207854523Y-118878333D01*
X207778333Y-118916428D01*
X207740238Y-118992619D01*
X207740238Y-119106904D01*
X207702142Y-119183095D01*
X207625952Y-119221190D01*
X207587857Y-119221190D01*
X207511666Y-119183095D01*
X207473571Y-119106904D01*
X207473571Y-118992619D01*
X207511666Y-118916428D01*
X207968809Y-118192619D02*
X208006904Y-118268809D01*
X208006904Y-118421190D01*
X207968809Y-118497380D01*
X207930714Y-118535476D01*
X207854523Y-118573571D01*
X207625952Y-118573571D01*
X207549761Y-118535476D01*
X207511666Y-118497380D01*
X207473571Y-118421190D01*
X207473571Y-118268809D01*
X207511666Y-118192619D01*
X208006904Y-117735476D02*
X207968809Y-117811666D01*
X207930714Y-117849761D01*
X207854523Y-117887857D01*
X207625952Y-117887857D01*
X207549761Y-117849761D01*
X207511666Y-117811666D01*
X207473571Y-117735476D01*
X207473571Y-117621190D01*
X207511666Y-117545000D01*
X207549761Y-117506904D01*
X207625952Y-117468809D01*
X207854523Y-117468809D01*
X207930714Y-117506904D01*
X207968809Y-117545000D01*
X208006904Y-117621190D01*
X208006904Y-117735476D01*
X207473571Y-117125952D02*
X208006904Y-117125952D01*
X207549761Y-117125952D02*
X207511666Y-117087857D01*
X207473571Y-117011666D01*
X207473571Y-116897380D01*
X207511666Y-116821190D01*
X207587857Y-116783095D01*
X208006904Y-116783095D01*
X207473571Y-116402142D02*
X208006904Y-116402142D01*
X207549761Y-116402142D02*
X207511666Y-116364047D01*
X207473571Y-116287857D01*
X207473571Y-116173571D01*
X207511666Y-116097380D01*
X207587857Y-116059285D01*
X208006904Y-116059285D01*
X207968809Y-115373571D02*
X208006904Y-115449761D01*
X208006904Y-115602142D01*
X207968809Y-115678333D01*
X207892619Y-115716428D01*
X207587857Y-115716428D01*
X207511666Y-115678333D01*
X207473571Y-115602142D01*
X207473571Y-115449761D01*
X207511666Y-115373571D01*
X207587857Y-115335476D01*
X207664047Y-115335476D01*
X207740238Y-115716428D01*
X207968809Y-114649761D02*
X208006904Y-114725952D01*
X208006904Y-114878333D01*
X207968809Y-114954523D01*
X207930714Y-114992619D01*
X207854523Y-115030714D01*
X207625952Y-115030714D01*
X207549761Y-114992619D01*
X207511666Y-114954523D01*
X207473571Y-114878333D01*
X207473571Y-114725952D01*
X207511666Y-114649761D01*
X207473571Y-114421190D02*
X207473571Y-114116428D01*
X207206904Y-114306904D02*
X207892619Y-114306904D01*
X207968809Y-114268809D01*
X208006904Y-114192619D01*
X208006904Y-114116428D01*
%TO.C,R15*%
X166997142Y-107767380D02*
X166663809Y-107291190D01*
X166425714Y-107767380D02*
X166425714Y-106767380D01*
X166806666Y-106767380D01*
X166901904Y-106815000D01*
X166949523Y-106862619D01*
X166997142Y-106957857D01*
X166997142Y-107100714D01*
X166949523Y-107195952D01*
X166901904Y-107243571D01*
X166806666Y-107291190D01*
X166425714Y-107291190D01*
X167949523Y-107767380D02*
X167378095Y-107767380D01*
X167663809Y-107767380D02*
X167663809Y-106767380D01*
X167568571Y-106910238D01*
X167473333Y-107005476D01*
X167378095Y-107053095D01*
X168854285Y-106767380D02*
X168378095Y-106767380D01*
X168330476Y-107243571D01*
X168378095Y-107195952D01*
X168473333Y-107148333D01*
X168711428Y-107148333D01*
X168806666Y-107195952D01*
X168854285Y-107243571D01*
X168901904Y-107338809D01*
X168901904Y-107576904D01*
X168854285Y-107672142D01*
X168806666Y-107719761D01*
X168711428Y-107767380D01*
X168473333Y-107767380D01*
X168378095Y-107719761D01*
X168330476Y-107672142D01*
%TO.C,R11*%
X121102380Y-132722857D02*
X120626190Y-133056190D01*
X121102380Y-133294285D02*
X120102380Y-133294285D01*
X120102380Y-132913333D01*
X120150000Y-132818095D01*
X120197619Y-132770476D01*
X120292857Y-132722857D01*
X120435714Y-132722857D01*
X120530952Y-132770476D01*
X120578571Y-132818095D01*
X120626190Y-132913333D01*
X120626190Y-133294285D01*
X121102380Y-131770476D02*
X121102380Y-132341904D01*
X121102380Y-132056190D02*
X120102380Y-132056190D01*
X120245238Y-132151428D01*
X120340476Y-132246666D01*
X120388095Y-132341904D01*
X121102380Y-130818095D02*
X121102380Y-131389523D01*
X121102380Y-131103809D02*
X120102380Y-131103809D01*
X120245238Y-131199047D01*
X120340476Y-131294285D01*
X120388095Y-131389523D01*
%TO.C,H2*%
X211963095Y-110942380D02*
X211963095Y-109942380D01*
X211963095Y-110418571D02*
X212534523Y-110418571D01*
X212534523Y-110942380D02*
X212534523Y-109942380D01*
X212963095Y-110037619D02*
X213010714Y-109990000D01*
X213105952Y-109942380D01*
X213344047Y-109942380D01*
X213439285Y-109990000D01*
X213486904Y-110037619D01*
X213534523Y-110132857D01*
X213534523Y-110228095D01*
X213486904Y-110370952D01*
X212915476Y-110942380D01*
X213534523Y-110942380D01*
%TO.C,R21*%
X91892380Y-142755857D02*
X91416190Y-143089190D01*
X91892380Y-143327285D02*
X90892380Y-143327285D01*
X90892380Y-142946333D01*
X90940000Y-142851095D01*
X90987619Y-142803476D01*
X91082857Y-142755857D01*
X91225714Y-142755857D01*
X91320952Y-142803476D01*
X91368571Y-142851095D01*
X91416190Y-142946333D01*
X91416190Y-143327285D01*
X90987619Y-142374904D02*
X90940000Y-142327285D01*
X90892380Y-142232047D01*
X90892380Y-141993952D01*
X90940000Y-141898714D01*
X90987619Y-141851095D01*
X91082857Y-141803476D01*
X91178095Y-141803476D01*
X91320952Y-141851095D01*
X91892380Y-142422523D01*
X91892380Y-141803476D01*
X91892380Y-140851095D02*
X91892380Y-141422523D01*
X91892380Y-141136809D02*
X90892380Y-141136809D01*
X91035238Y-141232047D01*
X91130476Y-141327285D01*
X91178095Y-141422523D01*
%TO.C,R22*%
X95702380Y-142755857D02*
X95226190Y-143089190D01*
X95702380Y-143327285D02*
X94702380Y-143327285D01*
X94702380Y-142946333D01*
X94750000Y-142851095D01*
X94797619Y-142803476D01*
X94892857Y-142755857D01*
X95035714Y-142755857D01*
X95130952Y-142803476D01*
X95178571Y-142851095D01*
X95226190Y-142946333D01*
X95226190Y-143327285D01*
X94797619Y-142374904D02*
X94750000Y-142327285D01*
X94702380Y-142232047D01*
X94702380Y-141993952D01*
X94750000Y-141898714D01*
X94797619Y-141851095D01*
X94892857Y-141803476D01*
X94988095Y-141803476D01*
X95130952Y-141851095D01*
X95702380Y-142422523D01*
X95702380Y-141803476D01*
X94797619Y-141422523D02*
X94750000Y-141374904D01*
X94702380Y-141279666D01*
X94702380Y-141041571D01*
X94750000Y-140946333D01*
X94797619Y-140898714D01*
X94892857Y-140851095D01*
X94988095Y-140851095D01*
X95130952Y-140898714D01*
X95702380Y-141470142D01*
X95702380Y-140851095D01*
%TO.C,H1*%
X211328095Y-154757380D02*
X211328095Y-153757380D01*
X211328095Y-154233571D02*
X211899523Y-154233571D01*
X211899523Y-154757380D02*
X211899523Y-153757380D01*
X212899523Y-154757380D02*
X212328095Y-154757380D01*
X212613809Y-154757380D02*
X212613809Y-153757380D01*
X212518571Y-153900238D01*
X212423333Y-153995476D01*
X212328095Y-154043095D01*
%TO.C,R16*%
X167632142Y-112847380D02*
X167298809Y-112371190D01*
X167060714Y-112847380D02*
X167060714Y-111847380D01*
X167441666Y-111847380D01*
X167536904Y-111895000D01*
X167584523Y-111942619D01*
X167632142Y-112037857D01*
X167632142Y-112180714D01*
X167584523Y-112275952D01*
X167536904Y-112323571D01*
X167441666Y-112371190D01*
X167060714Y-112371190D01*
X168584523Y-112847380D02*
X168013095Y-112847380D01*
X168298809Y-112847380D02*
X168298809Y-111847380D01*
X168203571Y-111990238D01*
X168108333Y-112085476D01*
X168013095Y-112133095D01*
X169441666Y-111847380D02*
X169251190Y-111847380D01*
X169155952Y-111895000D01*
X169108333Y-111942619D01*
X169013095Y-112085476D01*
X168965476Y-112275952D01*
X168965476Y-112656904D01*
X169013095Y-112752142D01*
X169060714Y-112799761D01*
X169155952Y-112847380D01*
X169346428Y-112847380D01*
X169441666Y-112799761D01*
X169489285Y-112752142D01*
X169536904Y-112656904D01*
X169536904Y-112418809D01*
X169489285Y-112323571D01*
X169441666Y-112275952D01*
X169346428Y-112228333D01*
X169155952Y-112228333D01*
X169060714Y-112275952D01*
X169013095Y-112323571D01*
X168965476Y-112418809D01*
%TO.C,R9*%
X117927380Y-131611666D02*
X117451190Y-131945000D01*
X117927380Y-132183095D02*
X116927380Y-132183095D01*
X116927380Y-131802142D01*
X116975000Y-131706904D01*
X117022619Y-131659285D01*
X117117857Y-131611666D01*
X117260714Y-131611666D01*
X117355952Y-131659285D01*
X117403571Y-131706904D01*
X117451190Y-131802142D01*
X117451190Y-132183095D01*
X117927380Y-131135476D02*
X117927380Y-130945000D01*
X117879761Y-130849761D01*
X117832142Y-130802142D01*
X117689285Y-130706904D01*
X117498809Y-130659285D01*
X117117857Y-130659285D01*
X117022619Y-130706904D01*
X116975000Y-130754523D01*
X116927380Y-130849761D01*
X116927380Y-131040238D01*
X116975000Y-131135476D01*
X117022619Y-131183095D01*
X117117857Y-131230714D01*
X117355952Y-131230714D01*
X117451190Y-131183095D01*
X117498809Y-131135476D01*
X117546428Y-131040238D01*
X117546428Y-130849761D01*
X117498809Y-130754523D01*
X117451190Y-130706904D01*
X117355952Y-130659285D01*
%TO.C,RV2*%
X152439761Y-135827380D02*
X152106428Y-135351190D01*
X151868333Y-135827380D02*
X151868333Y-134827380D01*
X152249285Y-134827380D01*
X152344523Y-134875000D01*
X152392142Y-134922619D01*
X152439761Y-135017857D01*
X152439761Y-135160714D01*
X152392142Y-135255952D01*
X152344523Y-135303571D01*
X152249285Y-135351190D01*
X151868333Y-135351190D01*
X152725476Y-134827380D02*
X153058809Y-135827380D01*
X153392142Y-134827380D01*
X153677857Y-134922619D02*
X153725476Y-134875000D01*
X153820714Y-134827380D01*
X154058809Y-134827380D01*
X154154047Y-134875000D01*
X154201666Y-134922619D01*
X154249285Y-135017857D01*
X154249285Y-135113095D01*
X154201666Y-135255952D01*
X153630238Y-135827380D01*
X154249285Y-135827380D01*
%TO.C,R4*%
X132548333Y-119197380D02*
X132215000Y-118721190D01*
X131976904Y-119197380D02*
X131976904Y-118197380D01*
X132357857Y-118197380D01*
X132453095Y-118245000D01*
X132500714Y-118292619D01*
X132548333Y-118387857D01*
X132548333Y-118530714D01*
X132500714Y-118625952D01*
X132453095Y-118673571D01*
X132357857Y-118721190D01*
X131976904Y-118721190D01*
X133405476Y-118530714D02*
X133405476Y-119197380D01*
X133167380Y-118149761D02*
X132929285Y-118864047D01*
X133548333Y-118864047D01*
%TO.C,SW5*%
X195491666Y-110747261D02*
X195634523Y-110794880D01*
X195872619Y-110794880D01*
X195967857Y-110747261D01*
X196015476Y-110699642D01*
X196063095Y-110604404D01*
X196063095Y-110509166D01*
X196015476Y-110413928D01*
X195967857Y-110366309D01*
X195872619Y-110318690D01*
X195682142Y-110271071D01*
X195586904Y-110223452D01*
X195539285Y-110175833D01*
X195491666Y-110080595D01*
X195491666Y-109985357D01*
X195539285Y-109890119D01*
X195586904Y-109842500D01*
X195682142Y-109794880D01*
X195920238Y-109794880D01*
X196063095Y-109842500D01*
X196396428Y-109794880D02*
X196634523Y-110794880D01*
X196825000Y-110080595D01*
X197015476Y-110794880D01*
X197253571Y-109794880D01*
X198110714Y-109794880D02*
X197634523Y-109794880D01*
X197586904Y-110271071D01*
X197634523Y-110223452D01*
X197729761Y-110175833D01*
X197967857Y-110175833D01*
X198063095Y-110223452D01*
X198110714Y-110271071D01*
X198158333Y-110366309D01*
X198158333Y-110604404D01*
X198110714Y-110699642D01*
X198063095Y-110747261D01*
X197967857Y-110794880D01*
X197729761Y-110794880D01*
X197634523Y-110747261D01*
X197586904Y-110699642D01*
%TO.C,D2*%
X149042380Y-128373095D02*
X148042380Y-128373095D01*
X148042380Y-128135000D01*
X148090000Y-127992142D01*
X148185238Y-127896904D01*
X148280476Y-127849285D01*
X148470952Y-127801666D01*
X148613809Y-127801666D01*
X148804285Y-127849285D01*
X148899523Y-127896904D01*
X148994761Y-127992142D01*
X149042380Y-128135000D01*
X149042380Y-128373095D01*
X148137619Y-127420714D02*
X148090000Y-127373095D01*
X148042380Y-127277857D01*
X148042380Y-127039761D01*
X148090000Y-126944523D01*
X148137619Y-126896904D01*
X148232857Y-126849285D01*
X148328095Y-126849285D01*
X148470952Y-126896904D01*
X149042380Y-127468333D01*
X149042380Y-126849285D01*
%TO.C,L1*%
X138263333Y-141422380D02*
X137787142Y-141422380D01*
X137787142Y-140422380D01*
X139120476Y-141422380D02*
X138549047Y-141422380D01*
X138834761Y-141422380D02*
X138834761Y-140422380D01*
X138739523Y-140565238D01*
X138644285Y-140660476D01*
X138549047Y-140708095D01*
%TO.C,R5*%
X169378333Y-123642380D02*
X169045000Y-123166190D01*
X168806904Y-123642380D02*
X168806904Y-122642380D01*
X169187857Y-122642380D01*
X169283095Y-122690000D01*
X169330714Y-122737619D01*
X169378333Y-122832857D01*
X169378333Y-122975714D01*
X169330714Y-123070952D01*
X169283095Y-123118571D01*
X169187857Y-123166190D01*
X168806904Y-123166190D01*
X170283095Y-122642380D02*
X169806904Y-122642380D01*
X169759285Y-123118571D01*
X169806904Y-123070952D01*
X169902142Y-123023333D01*
X170140238Y-123023333D01*
X170235476Y-123070952D01*
X170283095Y-123118571D01*
X170330714Y-123213809D01*
X170330714Y-123451904D01*
X170283095Y-123547142D01*
X170235476Y-123594761D01*
X170140238Y-123642380D01*
X169902142Y-123642380D01*
X169806904Y-123594761D01*
X169759285Y-123547142D01*
%TO.C,H3*%
X85598095Y-110942380D02*
X85598095Y-109942380D01*
X85598095Y-110418571D02*
X86169523Y-110418571D01*
X86169523Y-110942380D02*
X86169523Y-109942380D01*
X86550476Y-109942380D02*
X87169523Y-109942380D01*
X86836190Y-110323333D01*
X86979047Y-110323333D01*
X87074285Y-110370952D01*
X87121904Y-110418571D01*
X87169523Y-110513809D01*
X87169523Y-110751904D01*
X87121904Y-110847142D01*
X87074285Y-110894761D01*
X86979047Y-110942380D01*
X86693333Y-110942380D01*
X86598095Y-110894761D01*
X86550476Y-110847142D01*
%TO.C,R13*%
X150472380Y-136532857D02*
X149996190Y-136866190D01*
X150472380Y-137104285D02*
X149472380Y-137104285D01*
X149472380Y-136723333D01*
X149520000Y-136628095D01*
X149567619Y-136580476D01*
X149662857Y-136532857D01*
X149805714Y-136532857D01*
X149900952Y-136580476D01*
X149948571Y-136628095D01*
X149996190Y-136723333D01*
X149996190Y-137104285D01*
X150472380Y-135580476D02*
X150472380Y-136151904D01*
X150472380Y-135866190D02*
X149472380Y-135866190D01*
X149615238Y-135961428D01*
X149710476Y-136056666D01*
X149758095Y-136151904D01*
X149472380Y-135247142D02*
X149472380Y-134628095D01*
X149853333Y-134961428D01*
X149853333Y-134818571D01*
X149900952Y-134723333D01*
X149948571Y-134675714D01*
X150043809Y-134628095D01*
X150281904Y-134628095D01*
X150377142Y-134675714D01*
X150424761Y-134723333D01*
X150472380Y-134818571D01*
X150472380Y-135104285D01*
X150424761Y-135199523D01*
X150377142Y-135247142D01*
%TO.C,C4*%
X110323333Y-133707142D02*
X110275714Y-133754761D01*
X110132857Y-133802380D01*
X110037619Y-133802380D01*
X109894761Y-133754761D01*
X109799523Y-133659523D01*
X109751904Y-133564285D01*
X109704285Y-133373809D01*
X109704285Y-133230952D01*
X109751904Y-133040476D01*
X109799523Y-132945238D01*
X109894761Y-132850000D01*
X110037619Y-132802380D01*
X110132857Y-132802380D01*
X110275714Y-132850000D01*
X110323333Y-132897619D01*
X111180476Y-133135714D02*
X111180476Y-133802380D01*
X110942380Y-132754761D02*
X110704285Y-133469047D01*
X111323333Y-133469047D01*
%TO.C,R19*%
X168727380Y-149232857D02*
X168251190Y-149566190D01*
X168727380Y-149804285D02*
X167727380Y-149804285D01*
X167727380Y-149423333D01*
X167775000Y-149328095D01*
X167822619Y-149280476D01*
X167917857Y-149232857D01*
X168060714Y-149232857D01*
X168155952Y-149280476D01*
X168203571Y-149328095D01*
X168251190Y-149423333D01*
X168251190Y-149804285D01*
X168727380Y-148280476D02*
X168727380Y-148851904D01*
X168727380Y-148566190D02*
X167727380Y-148566190D01*
X167870238Y-148661428D01*
X167965476Y-148756666D01*
X168013095Y-148851904D01*
X168727380Y-147804285D02*
X168727380Y-147613809D01*
X168679761Y-147518571D01*
X168632142Y-147470952D01*
X168489285Y-147375714D01*
X168298809Y-147328095D01*
X167917857Y-147328095D01*
X167822619Y-147375714D01*
X167775000Y-147423333D01*
X167727380Y-147518571D01*
X167727380Y-147709047D01*
X167775000Y-147804285D01*
X167822619Y-147851904D01*
X167917857Y-147899523D01*
X168155952Y-147899523D01*
X168251190Y-147851904D01*
X168298809Y-147804285D01*
X168346428Y-147709047D01*
X168346428Y-147518571D01*
X168298809Y-147423333D01*
X168251190Y-147375714D01*
X168155952Y-147328095D01*
%TO.C,U12*%
X126396904Y-156932380D02*
X126396904Y-157741904D01*
X126444523Y-157837142D01*
X126492142Y-157884761D01*
X126587380Y-157932380D01*
X126777857Y-157932380D01*
X126873095Y-157884761D01*
X126920714Y-157837142D01*
X126968333Y-157741904D01*
X126968333Y-156932380D01*
X127968333Y-157932380D02*
X127396904Y-157932380D01*
X127682619Y-157932380D02*
X127682619Y-156932380D01*
X127587380Y-157075238D01*
X127492142Y-157170476D01*
X127396904Y-157218095D01*
X128349285Y-157027619D02*
X128396904Y-156980000D01*
X128492142Y-156932380D01*
X128730238Y-156932380D01*
X128825476Y-156980000D01*
X128873095Y-157027619D01*
X128920714Y-157122857D01*
X128920714Y-157218095D01*
X128873095Y-157360952D01*
X128301666Y-157932380D01*
X128920714Y-157932380D01*
%TO.C,C11*%
X115927142Y-119387857D02*
X115974761Y-119435476D01*
X116022380Y-119578333D01*
X116022380Y-119673571D01*
X115974761Y-119816428D01*
X115879523Y-119911666D01*
X115784285Y-119959285D01*
X115593809Y-120006904D01*
X115450952Y-120006904D01*
X115260476Y-119959285D01*
X115165238Y-119911666D01*
X115070000Y-119816428D01*
X115022380Y-119673571D01*
X115022380Y-119578333D01*
X115070000Y-119435476D01*
X115117619Y-119387857D01*
X116022380Y-118435476D02*
X116022380Y-119006904D01*
X116022380Y-118721190D02*
X115022380Y-118721190D01*
X115165238Y-118816428D01*
X115260476Y-118911666D01*
X115308095Y-119006904D01*
X116022380Y-117483095D02*
X116022380Y-118054523D01*
X116022380Y-117768809D02*
X115022380Y-117768809D01*
X115165238Y-117864047D01*
X115260476Y-117959285D01*
X115308095Y-118054523D01*
%TO.C,C5*%
X117832142Y-128296086D02*
X117879761Y-128343705D01*
X117927380Y-128486562D01*
X117927380Y-128581800D01*
X117879761Y-128724658D01*
X117784523Y-128819896D01*
X117689285Y-128867515D01*
X117498809Y-128915134D01*
X117355952Y-128915134D01*
X117165476Y-128867515D01*
X117070238Y-128819896D01*
X116975000Y-128724658D01*
X116927380Y-128581800D01*
X116927380Y-128486562D01*
X116975000Y-128343705D01*
X117022619Y-128296086D01*
X116927380Y-127391324D02*
X116927380Y-127867515D01*
X117403571Y-127915134D01*
X117355952Y-127867515D01*
X117308333Y-127772277D01*
X117308333Y-127534181D01*
X117355952Y-127438943D01*
X117403571Y-127391324D01*
X117498809Y-127343705D01*
X117736904Y-127343705D01*
X117832142Y-127391324D01*
X117879761Y-127438943D01*
X117927380Y-127534181D01*
X117927380Y-127772277D01*
X117879761Y-127867515D01*
X117832142Y-127915134D01*
%TO.C,R18*%
X208732380Y-142501857D02*
X208256190Y-142835190D01*
X208732380Y-143073285D02*
X207732380Y-143073285D01*
X207732380Y-142692333D01*
X207780000Y-142597095D01*
X207827619Y-142549476D01*
X207922857Y-142501857D01*
X208065714Y-142501857D01*
X208160952Y-142549476D01*
X208208571Y-142597095D01*
X208256190Y-142692333D01*
X208256190Y-143073285D01*
X208732380Y-141549476D02*
X208732380Y-142120904D01*
X208732380Y-141835190D02*
X207732380Y-141835190D01*
X207875238Y-141930428D01*
X207970476Y-142025666D01*
X208018095Y-142120904D01*
X208160952Y-140978047D02*
X208113333Y-141073285D01*
X208065714Y-141120904D01*
X207970476Y-141168523D01*
X207922857Y-141168523D01*
X207827619Y-141120904D01*
X207780000Y-141073285D01*
X207732380Y-140978047D01*
X207732380Y-140787571D01*
X207780000Y-140692333D01*
X207827619Y-140644714D01*
X207922857Y-140597095D01*
X207970476Y-140597095D01*
X208065714Y-140644714D01*
X208113333Y-140692333D01*
X208160952Y-140787571D01*
X208160952Y-140978047D01*
X208208571Y-141073285D01*
X208256190Y-141120904D01*
X208351428Y-141168523D01*
X208541904Y-141168523D01*
X208637142Y-141120904D01*
X208684761Y-141073285D01*
X208732380Y-140978047D01*
X208732380Y-140787571D01*
X208684761Y-140692333D01*
X208637142Y-140644714D01*
X208541904Y-140597095D01*
X208351428Y-140597095D01*
X208256190Y-140644714D01*
X208208571Y-140692333D01*
X208160952Y-140787571D01*
%TO.C,D1*%
X172916904Y-123642380D02*
X172916904Y-122642380D01*
X173155000Y-122642380D01*
X173297857Y-122690000D01*
X173393095Y-122785238D01*
X173440714Y-122880476D01*
X173488333Y-123070952D01*
X173488333Y-123213809D01*
X173440714Y-123404285D01*
X173393095Y-123499523D01*
X173297857Y-123594761D01*
X173155000Y-123642380D01*
X172916904Y-123642380D01*
X174440714Y-123642380D02*
X173869285Y-123642380D01*
X174155000Y-123642380D02*
X174155000Y-122642380D01*
X174059761Y-122785238D01*
X173964523Y-122880476D01*
X173869285Y-122928095D01*
%TO.C,C8*%
X101787753Y-133707142D02*
X101740134Y-133754761D01*
X101597277Y-133802380D01*
X101502039Y-133802380D01*
X101359181Y-133754761D01*
X101263943Y-133659523D01*
X101216324Y-133564285D01*
X101168705Y-133373809D01*
X101168705Y-133230952D01*
X101216324Y-133040476D01*
X101263943Y-132945238D01*
X101359181Y-132850000D01*
X101502039Y-132802380D01*
X101597277Y-132802380D01*
X101740134Y-132850000D01*
X101787753Y-132897619D01*
X102359181Y-133230952D02*
X102263943Y-133183333D01*
X102216324Y-133135714D01*
X102168705Y-133040476D01*
X102168705Y-132992857D01*
X102216324Y-132897619D01*
X102263943Y-132850000D01*
X102359181Y-132802380D01*
X102549658Y-132802380D01*
X102644896Y-132850000D01*
X102692515Y-132897619D01*
X102740134Y-132992857D01*
X102740134Y-133040476D01*
X102692515Y-133135714D01*
X102644896Y-133183333D01*
X102549658Y-133230952D01*
X102359181Y-133230952D01*
X102263943Y-133278571D01*
X102216324Y-133326190D01*
X102168705Y-133421428D01*
X102168705Y-133611904D01*
X102216324Y-133707142D01*
X102263943Y-133754761D01*
X102359181Y-133802380D01*
X102549658Y-133802380D01*
X102644896Y-133754761D01*
X102692515Y-133707142D01*
X102740134Y-133611904D01*
X102740134Y-133421428D01*
X102692515Y-133326190D01*
X102644896Y-133278571D01*
X102549658Y-133230952D01*
%TO.C,C1*%
X128200682Y-117027142D02*
X128153063Y-117074761D01*
X128010206Y-117122380D01*
X127914968Y-117122380D01*
X127772110Y-117074761D01*
X127676872Y-116979523D01*
X127629253Y-116884285D01*
X127581634Y-116693809D01*
X127581634Y-116550952D01*
X127629253Y-116360476D01*
X127676872Y-116265238D01*
X127772110Y-116170000D01*
X127914968Y-116122380D01*
X128010206Y-116122380D01*
X128153063Y-116170000D01*
X128200682Y-116217619D01*
X129153063Y-117122380D02*
X128581634Y-117122380D01*
X128867349Y-117122380D02*
X128867349Y-116122380D01*
X128772110Y-116265238D01*
X128676872Y-116360476D01*
X128581634Y-116408095D01*
%TO.C,RV1*%
X170219761Y-117292380D02*
X169886428Y-116816190D01*
X169648333Y-117292380D02*
X169648333Y-116292380D01*
X170029285Y-116292380D01*
X170124523Y-116340000D01*
X170172142Y-116387619D01*
X170219761Y-116482857D01*
X170219761Y-116625714D01*
X170172142Y-116720952D01*
X170124523Y-116768571D01*
X170029285Y-116816190D01*
X169648333Y-116816190D01*
X170505476Y-116292380D02*
X170838809Y-117292380D01*
X171172142Y-116292380D01*
X172029285Y-117292380D02*
X171457857Y-117292380D01*
X171743571Y-117292380D02*
X171743571Y-116292380D01*
X171648333Y-116435238D01*
X171553095Y-116530476D01*
X171457857Y-116578095D01*
%TO.C,R14*%
X150472380Y-139517857D02*
X149996190Y-139851190D01*
X150472380Y-140089285D02*
X149472380Y-140089285D01*
X149472380Y-139708333D01*
X149520000Y-139613095D01*
X149567619Y-139565476D01*
X149662857Y-139517857D01*
X149805714Y-139517857D01*
X149900952Y-139565476D01*
X149948571Y-139613095D01*
X149996190Y-139708333D01*
X149996190Y-140089285D01*
X150472380Y-138565476D02*
X150472380Y-139136904D01*
X150472380Y-138851190D02*
X149472380Y-138851190D01*
X149615238Y-138946428D01*
X149710476Y-139041666D01*
X149758095Y-139136904D01*
X149805714Y-137708333D02*
X150472380Y-137708333D01*
X149424761Y-137946428D02*
X150139047Y-138184523D01*
X150139047Y-137565476D01*
%TO.C,C3*%
X97512142Y-118911666D02*
X97559761Y-118959285D01*
X97607380Y-119102142D01*
X97607380Y-119197380D01*
X97559761Y-119340238D01*
X97464523Y-119435476D01*
X97369285Y-119483095D01*
X97178809Y-119530714D01*
X97035952Y-119530714D01*
X96845476Y-119483095D01*
X96750238Y-119435476D01*
X96655000Y-119340238D01*
X96607380Y-119197380D01*
X96607380Y-119102142D01*
X96655000Y-118959285D01*
X96702619Y-118911666D01*
X96607380Y-118578333D02*
X96607380Y-117959285D01*
X96988333Y-118292619D01*
X96988333Y-118149761D01*
X97035952Y-118054523D01*
X97083571Y-118006904D01*
X97178809Y-117959285D01*
X97416904Y-117959285D01*
X97512142Y-118006904D01*
X97559761Y-118054523D01*
X97607380Y-118149761D01*
X97607380Y-118435476D01*
X97559761Y-118530714D01*
X97512142Y-118578333D01*
%TO.C,C10*%
X108307142Y-119387857D02*
X108354761Y-119435476D01*
X108402380Y-119578333D01*
X108402380Y-119673571D01*
X108354761Y-119816428D01*
X108259523Y-119911666D01*
X108164285Y-119959285D01*
X107973809Y-120006904D01*
X107830952Y-120006904D01*
X107640476Y-119959285D01*
X107545238Y-119911666D01*
X107450000Y-119816428D01*
X107402380Y-119673571D01*
X107402380Y-119578333D01*
X107450000Y-119435476D01*
X107497619Y-119387857D01*
X108402380Y-118435476D02*
X108402380Y-119006904D01*
X108402380Y-118721190D02*
X107402380Y-118721190D01*
X107545238Y-118816428D01*
X107640476Y-118911666D01*
X107688095Y-119006904D01*
X107402380Y-117816428D02*
X107402380Y-117721190D01*
X107450000Y-117625952D01*
X107497619Y-117578333D01*
X107592857Y-117530714D01*
X107783333Y-117483095D01*
X108021428Y-117483095D01*
X108211904Y-117530714D01*
X108307142Y-117578333D01*
X108354761Y-117625952D01*
X108402380Y-117721190D01*
X108402380Y-117816428D01*
X108354761Y-117911666D01*
X108307142Y-117959285D01*
X108211904Y-118006904D01*
X108021428Y-118054523D01*
X107783333Y-118054523D01*
X107592857Y-118006904D01*
X107497619Y-117959285D01*
X107450000Y-117911666D01*
X107402380Y-117816428D01*
%TO.C,R8*%
X205557380Y-142025666D02*
X205081190Y-142359000D01*
X205557380Y-142597095D02*
X204557380Y-142597095D01*
X204557380Y-142216142D01*
X204605000Y-142120904D01*
X204652619Y-142073285D01*
X204747857Y-142025666D01*
X204890714Y-142025666D01*
X204985952Y-142073285D01*
X205033571Y-142120904D01*
X205081190Y-142216142D01*
X205081190Y-142597095D01*
X204985952Y-141454238D02*
X204938333Y-141549476D01*
X204890714Y-141597095D01*
X204795476Y-141644714D01*
X204747857Y-141644714D01*
X204652619Y-141597095D01*
X204605000Y-141549476D01*
X204557380Y-141454238D01*
X204557380Y-141263761D01*
X204605000Y-141168523D01*
X204652619Y-141120904D01*
X204747857Y-141073285D01*
X204795476Y-141073285D01*
X204890714Y-141120904D01*
X204938333Y-141168523D01*
X204985952Y-141263761D01*
X204985952Y-141454238D01*
X205033571Y-141549476D01*
X205081190Y-141597095D01*
X205176428Y-141644714D01*
X205366904Y-141644714D01*
X205462142Y-141597095D01*
X205509761Y-141549476D01*
X205557380Y-141454238D01*
X205557380Y-141263761D01*
X205509761Y-141168523D01*
X205462142Y-141120904D01*
X205366904Y-141073285D01*
X205176428Y-141073285D01*
X205081190Y-141120904D01*
X205033571Y-141168523D01*
X204985952Y-141263761D01*
%TO.C,J3*%
X115944880Y-107453333D02*
X116659166Y-107453333D01*
X116802023Y-107500952D01*
X116897261Y-107596190D01*
X116944880Y-107739047D01*
X116944880Y-107834285D01*
X115944880Y-107072380D02*
X115944880Y-106453333D01*
X116325833Y-106786666D01*
X116325833Y-106643809D01*
X116373452Y-106548571D01*
X116421071Y-106500952D01*
X116516309Y-106453333D01*
X116754404Y-106453333D01*
X116849642Y-106500952D01*
X116897261Y-106548571D01*
X116944880Y-106643809D01*
X116944880Y-106929523D01*
X116897261Y-107024761D01*
X116849642Y-107072380D01*
%TO.C,U14*%
X110521904Y-156932380D02*
X110521904Y-157741904D01*
X110569523Y-157837142D01*
X110617142Y-157884761D01*
X110712380Y-157932380D01*
X110902857Y-157932380D01*
X110998095Y-157884761D01*
X111045714Y-157837142D01*
X111093333Y-157741904D01*
X111093333Y-156932380D01*
X112093333Y-157932380D02*
X111521904Y-157932380D01*
X111807619Y-157932380D02*
X111807619Y-156932380D01*
X111712380Y-157075238D01*
X111617142Y-157170476D01*
X111521904Y-157218095D01*
X112950476Y-157265714D02*
X112950476Y-157932380D01*
X112712380Y-156884761D02*
X112474285Y-157599047D01*
X113093333Y-157599047D01*
%TO.C,C6*%
X106402142Y-118911666D02*
X106449761Y-118959285D01*
X106497380Y-119102142D01*
X106497380Y-119197380D01*
X106449761Y-119340238D01*
X106354523Y-119435476D01*
X106259285Y-119483095D01*
X106068809Y-119530714D01*
X105925952Y-119530714D01*
X105735476Y-119483095D01*
X105640238Y-119435476D01*
X105545000Y-119340238D01*
X105497380Y-119197380D01*
X105497380Y-119102142D01*
X105545000Y-118959285D01*
X105592619Y-118911666D01*
X105497380Y-118054523D02*
X105497380Y-118245000D01*
X105545000Y-118340238D01*
X105592619Y-118387857D01*
X105735476Y-118483095D01*
X105925952Y-118530714D01*
X106306904Y-118530714D01*
X106402142Y-118483095D01*
X106449761Y-118435476D01*
X106497380Y-118340238D01*
X106497380Y-118149761D01*
X106449761Y-118054523D01*
X106402142Y-118006904D01*
X106306904Y-117959285D01*
X106068809Y-117959285D01*
X105973571Y-118006904D01*
X105925952Y-118054523D01*
X105878333Y-118149761D01*
X105878333Y-118340238D01*
X105925952Y-118435476D01*
X105973571Y-118483095D01*
X106068809Y-118530714D01*
%TO.C,U15*%
X110521904Y-106132380D02*
X110521904Y-106941904D01*
X110569523Y-107037142D01*
X110617142Y-107084761D01*
X110712380Y-107132380D01*
X110902857Y-107132380D01*
X110998095Y-107084761D01*
X111045714Y-107037142D01*
X111093333Y-106941904D01*
X111093333Y-106132380D01*
X112093333Y-107132380D02*
X111521904Y-107132380D01*
X111807619Y-107132380D02*
X111807619Y-106132380D01*
X111712380Y-106275238D01*
X111617142Y-106370476D01*
X111521904Y-106418095D01*
X112998095Y-106132380D02*
X112521904Y-106132380D01*
X112474285Y-106608571D01*
X112521904Y-106560952D01*
X112617142Y-106513333D01*
X112855238Y-106513333D01*
X112950476Y-106560952D01*
X112998095Y-106608571D01*
X113045714Y-106703809D01*
X113045714Y-106941904D01*
X112998095Y-107037142D01*
X112950476Y-107084761D01*
X112855238Y-107132380D01*
X112617142Y-107132380D01*
X112521904Y-107084761D01*
X112474285Y-107037142D01*
%TO.C,R20*%
X133167380Y-149486857D02*
X132691190Y-149820190D01*
X133167380Y-150058285D02*
X132167380Y-150058285D01*
X132167380Y-149677333D01*
X132215000Y-149582095D01*
X132262619Y-149534476D01*
X132357857Y-149486857D01*
X132500714Y-149486857D01*
X132595952Y-149534476D01*
X132643571Y-149582095D01*
X132691190Y-149677333D01*
X132691190Y-150058285D01*
X132262619Y-149105904D02*
X132215000Y-149058285D01*
X132167380Y-148963047D01*
X132167380Y-148724952D01*
X132215000Y-148629714D01*
X132262619Y-148582095D01*
X132357857Y-148534476D01*
X132453095Y-148534476D01*
X132595952Y-148582095D01*
X133167380Y-149153523D01*
X133167380Y-148534476D01*
X132167380Y-147915428D02*
X132167380Y-147820190D01*
X132215000Y-147724952D01*
X132262619Y-147677333D01*
X132357857Y-147629714D01*
X132548333Y-147582095D01*
X132786428Y-147582095D01*
X132976904Y-147629714D01*
X133072142Y-147677333D01*
X133119761Y-147724952D01*
X133167380Y-147820190D01*
X133167380Y-147915428D01*
X133119761Y-148010666D01*
X133072142Y-148058285D01*
X132976904Y-148105904D01*
X132786428Y-148153523D01*
X132548333Y-148153523D01*
X132357857Y-148105904D01*
X132262619Y-148058285D01*
X132215000Y-148010666D01*
X132167380Y-147915428D01*
%TO.C,R12*%
X131437142Y-135547380D02*
X131103809Y-135071190D01*
X130865714Y-135547380D02*
X130865714Y-134547380D01*
X131246666Y-134547380D01*
X131341904Y-134595000D01*
X131389523Y-134642619D01*
X131437142Y-134737857D01*
X131437142Y-134880714D01*
X131389523Y-134975952D01*
X131341904Y-135023571D01*
X131246666Y-135071190D01*
X130865714Y-135071190D01*
X132389523Y-135547380D02*
X131818095Y-135547380D01*
X132103809Y-135547380D02*
X132103809Y-134547380D01*
X132008571Y-134690238D01*
X131913333Y-134785476D01*
X131818095Y-134833095D01*
X132770476Y-134642619D02*
X132818095Y-134595000D01*
X132913333Y-134547380D01*
X133151428Y-134547380D01*
X133246666Y-134595000D01*
X133294285Y-134642619D01*
X133341904Y-134737857D01*
X133341904Y-134833095D01*
X133294285Y-134975952D01*
X132722857Y-135547380D01*
X133341904Y-135547380D01*
%TO.C,U9*%
X145923095Y-156932380D02*
X145923095Y-157741904D01*
X145970714Y-157837142D01*
X146018333Y-157884761D01*
X146113571Y-157932380D01*
X146304047Y-157932380D01*
X146399285Y-157884761D01*
X146446904Y-157837142D01*
X146494523Y-157741904D01*
X146494523Y-156932380D01*
X147018333Y-157932380D02*
X147208809Y-157932380D01*
X147304047Y-157884761D01*
X147351666Y-157837142D01*
X147446904Y-157694285D01*
X147494523Y-157503809D01*
X147494523Y-157122857D01*
X147446904Y-157027619D01*
X147399285Y-156980000D01*
X147304047Y-156932380D01*
X147113571Y-156932380D01*
X147018333Y-156980000D01*
X146970714Y-157027619D01*
X146923095Y-157122857D01*
X146923095Y-157360952D01*
X146970714Y-157456190D01*
X147018333Y-157503809D01*
X147113571Y-157551428D01*
X147304047Y-157551428D01*
X147399285Y-157503809D01*
X147446904Y-157456190D01*
X147494523Y-157360952D01*
%TO.C,U6*%
X171323095Y-125817380D02*
X171323095Y-126626904D01*
X171370714Y-126722142D01*
X171418333Y-126769761D01*
X171513571Y-126817380D01*
X171704047Y-126817380D01*
X171799285Y-126769761D01*
X171846904Y-126722142D01*
X171894523Y-126626904D01*
X171894523Y-125817380D01*
X172799285Y-125817380D02*
X172608809Y-125817380D01*
X172513571Y-125865000D01*
X172465952Y-125912619D01*
X172370714Y-126055476D01*
X172323095Y-126245952D01*
X172323095Y-126626904D01*
X172370714Y-126722142D01*
X172418333Y-126769761D01*
X172513571Y-126817380D01*
X172704047Y-126817380D01*
X172799285Y-126769761D01*
X172846904Y-126722142D01*
X172894523Y-126626904D01*
X172894523Y-126388809D01*
X172846904Y-126293571D01*
X172799285Y-126245952D01*
X172704047Y-126198333D01*
X172513571Y-126198333D01*
X172418333Y-126245952D01*
X172370714Y-126293571D01*
X172323095Y-126388809D01*
%TO.C,R7*%
X206192380Y-123356666D02*
X205716190Y-123690000D01*
X206192380Y-123928095D02*
X205192380Y-123928095D01*
X205192380Y-123547142D01*
X205240000Y-123451904D01*
X205287619Y-123404285D01*
X205382857Y-123356666D01*
X205525714Y-123356666D01*
X205620952Y-123404285D01*
X205668571Y-123451904D01*
X205716190Y-123547142D01*
X205716190Y-123928095D01*
X205192380Y-123023333D02*
X205192380Y-122356666D01*
X206192380Y-122785238D01*
%TO.C,R1*%
X196048333Y-113322380D02*
X195715000Y-112846190D01*
X195476904Y-113322380D02*
X195476904Y-112322380D01*
X195857857Y-112322380D01*
X195953095Y-112370000D01*
X196000714Y-112417619D01*
X196048333Y-112512857D01*
X196048333Y-112655714D01*
X196000714Y-112750952D01*
X195953095Y-112798571D01*
X195857857Y-112846190D01*
X195476904Y-112846190D01*
X197000714Y-113322380D02*
X196429285Y-113322380D01*
X196715000Y-113322380D02*
X196715000Y-112322380D01*
X196619761Y-112465238D01*
X196524523Y-112560476D01*
X196429285Y-112608095D01*
%TO.C,U16*%
X108037380Y-124428095D02*
X108846904Y-124428095D01*
X108942142Y-124380476D01*
X108989761Y-124332857D01*
X109037380Y-124237619D01*
X109037380Y-124047142D01*
X108989761Y-123951904D01*
X108942142Y-123904285D01*
X108846904Y-123856666D01*
X108037380Y-123856666D01*
X109037380Y-122856666D02*
X109037380Y-123428095D01*
X109037380Y-123142380D02*
X108037380Y-123142380D01*
X108180238Y-123237619D01*
X108275476Y-123332857D01*
X108323095Y-123428095D01*
X108037380Y-121999523D02*
X108037380Y-122190000D01*
X108085000Y-122285238D01*
X108132619Y-122332857D01*
X108275476Y-122428095D01*
X108465952Y-122475714D01*
X108846904Y-122475714D01*
X108942142Y-122428095D01*
X108989761Y-122380476D01*
X109037380Y-122285238D01*
X109037380Y-122094761D01*
X108989761Y-121999523D01*
X108942142Y-121951904D01*
X108846904Y-121904285D01*
X108608809Y-121904285D01*
X108513571Y-121951904D01*
X108465952Y-121999523D01*
X108418333Y-122094761D01*
X108418333Y-122285238D01*
X108465952Y-122380476D01*
X108513571Y-122428095D01*
X108608809Y-122475714D01*
%TO.C,U10*%
X99147380Y-124428095D02*
X99956904Y-124428095D01*
X100052142Y-124380476D01*
X100099761Y-124332857D01*
X100147380Y-124237619D01*
X100147380Y-124047142D01*
X100099761Y-123951904D01*
X100052142Y-123904285D01*
X99956904Y-123856666D01*
X99147380Y-123856666D01*
X100147380Y-122856666D02*
X100147380Y-123428095D01*
X100147380Y-123142380D02*
X99147380Y-123142380D01*
X99290238Y-123237619D01*
X99385476Y-123332857D01*
X99433095Y-123428095D01*
X99147380Y-122237619D02*
X99147380Y-122142380D01*
X99195000Y-122047142D01*
X99242619Y-121999523D01*
X99337857Y-121951904D01*
X99528333Y-121904285D01*
X99766428Y-121904285D01*
X99956904Y-121951904D01*
X100052142Y-121999523D01*
X100099761Y-122047142D01*
X100147380Y-122142380D01*
X100147380Y-122237619D01*
X100099761Y-122332857D01*
X100052142Y-122380476D01*
X99956904Y-122428095D01*
X99766428Y-122475714D01*
X99528333Y-122475714D01*
X99337857Y-122428095D01*
X99242619Y-122380476D01*
X99195000Y-122332857D01*
X99147380Y-122237619D01*
%TO.C,C13*%
X113657142Y-133707142D02*
X113609523Y-133754761D01*
X113466666Y-133802380D01*
X113371428Y-133802380D01*
X113228571Y-133754761D01*
X113133333Y-133659523D01*
X113085714Y-133564285D01*
X113038095Y-133373809D01*
X113038095Y-133230952D01*
X113085714Y-133040476D01*
X113133333Y-132945238D01*
X113228571Y-132850000D01*
X113371428Y-132802380D01*
X113466666Y-132802380D01*
X113609523Y-132850000D01*
X113657142Y-132897619D01*
X114609523Y-133802380D02*
X114038095Y-133802380D01*
X114323809Y-133802380D02*
X114323809Y-132802380D01*
X114228571Y-132945238D01*
X114133333Y-133040476D01*
X114038095Y-133088095D01*
X114942857Y-132802380D02*
X115561904Y-132802380D01*
X115228571Y-133183333D01*
X115371428Y-133183333D01*
X115466666Y-133230952D01*
X115514285Y-133278571D01*
X115561904Y-133373809D01*
X115561904Y-133611904D01*
X115514285Y-133707142D01*
X115466666Y-133754761D01*
X115371428Y-133802380D01*
X115085714Y-133802380D01*
X114990476Y-133754761D01*
X114942857Y-133707142D01*
%TO.C,U7*%
X181483095Y-156932380D02*
X181483095Y-157741904D01*
X181530714Y-157837142D01*
X181578333Y-157884761D01*
X181673571Y-157932380D01*
X181864047Y-157932380D01*
X181959285Y-157884761D01*
X182006904Y-157837142D01*
X182054523Y-157741904D01*
X182054523Y-156932380D01*
X182435476Y-156932380D02*
X183102142Y-156932380D01*
X182673571Y-157932380D01*
%TO.C,C2*%
X93037753Y-133707142D02*
X92990134Y-133754761D01*
X92847277Y-133802380D01*
X92752039Y-133802380D01*
X92609181Y-133754761D01*
X92513943Y-133659523D01*
X92466324Y-133564285D01*
X92418705Y-133373809D01*
X92418705Y-133230952D01*
X92466324Y-133040476D01*
X92513943Y-132945238D01*
X92609181Y-132850000D01*
X92752039Y-132802380D01*
X92847277Y-132802380D01*
X92990134Y-132850000D01*
X93037753Y-132897619D01*
X93418705Y-132897619D02*
X93466324Y-132850000D01*
X93561562Y-132802380D01*
X93799658Y-132802380D01*
X93894896Y-132850000D01*
X93942515Y-132897619D01*
X93990134Y-132992857D01*
X93990134Y-133088095D01*
X93942515Y-133230952D01*
X93371086Y-133802380D01*
X93990134Y-133802380D01*
%TO.C,U2*%
X139972380Y-108711904D02*
X140781904Y-108711904D01*
X140877142Y-108664285D01*
X140924761Y-108616666D01*
X140972380Y-108521428D01*
X140972380Y-108330952D01*
X140924761Y-108235714D01*
X140877142Y-108188095D01*
X140781904Y-108140476D01*
X139972380Y-108140476D01*
X140067619Y-107711904D02*
X140020000Y-107664285D01*
X139972380Y-107569047D01*
X139972380Y-107330952D01*
X140020000Y-107235714D01*
X140067619Y-107188095D01*
X140162857Y-107140476D01*
X140258095Y-107140476D01*
X140400952Y-107188095D01*
X140972380Y-107759523D01*
X140972380Y-107140476D01*
%TO.C,U13*%
X123221904Y-125632380D02*
X123221904Y-126441904D01*
X123269523Y-126537142D01*
X123317142Y-126584761D01*
X123412380Y-126632380D01*
X123602857Y-126632380D01*
X123698095Y-126584761D01*
X123745714Y-126537142D01*
X123793333Y-126441904D01*
X123793333Y-125632380D01*
X124793333Y-126632380D02*
X124221904Y-126632380D01*
X124507619Y-126632380D02*
X124507619Y-125632380D01*
X124412380Y-125775238D01*
X124317142Y-125870476D01*
X124221904Y-125918095D01*
X125126666Y-125632380D02*
X125745714Y-125632380D01*
X125412380Y-126013333D01*
X125555238Y-126013333D01*
X125650476Y-126060952D01*
X125698095Y-126108571D01*
X125745714Y-126203809D01*
X125745714Y-126441904D01*
X125698095Y-126537142D01*
X125650476Y-126584761D01*
X125555238Y-126632380D01*
X125269523Y-126632380D01*
X125174285Y-126584761D01*
X125126666Y-126537142D01*
%TO.C,BT1*%
X183364285Y-116133571D02*
X183507142Y-116181190D01*
X183554761Y-116228809D01*
X183602380Y-116324047D01*
X183602380Y-116466904D01*
X183554761Y-116562142D01*
X183507142Y-116609761D01*
X183411904Y-116657380D01*
X183030952Y-116657380D01*
X183030952Y-115657380D01*
X183364285Y-115657380D01*
X183459523Y-115705000D01*
X183507142Y-115752619D01*
X183554761Y-115847857D01*
X183554761Y-115943095D01*
X183507142Y-116038333D01*
X183459523Y-116085952D01*
X183364285Y-116133571D01*
X183030952Y-116133571D01*
X183888095Y-115657380D02*
X184459523Y-115657380D01*
X184173809Y-116657380D02*
X184173809Y-115657380D01*
X185316666Y-116657380D02*
X184745238Y-116657380D01*
X185030952Y-116657380D02*
X185030952Y-115657380D01*
X184935714Y-115800238D01*
X184840476Y-115895476D01*
X184745238Y-115943095D01*
%TO.C,Q1*%
X133889761Y-126912619D02*
X133794523Y-126865000D01*
X133699285Y-126769761D01*
X133556428Y-126626904D01*
X133461190Y-126579285D01*
X133365952Y-126579285D01*
X133413571Y-126817380D02*
X133318333Y-126769761D01*
X133223095Y-126674523D01*
X133175476Y-126484047D01*
X133175476Y-126150714D01*
X133223095Y-125960238D01*
X133318333Y-125865000D01*
X133413571Y-125817380D01*
X133604047Y-125817380D01*
X133699285Y-125865000D01*
X133794523Y-125960238D01*
X133842142Y-126150714D01*
X133842142Y-126484047D01*
X133794523Y-126674523D01*
X133699285Y-126769761D01*
X133604047Y-126817380D01*
X133413571Y-126817380D01*
X134794523Y-126817380D02*
X134223095Y-126817380D01*
X134508809Y-126817380D02*
X134508809Y-125817380D01*
X134413571Y-125960238D01*
X134318333Y-126055476D01*
X134223095Y-126103095D01*
%TO.C,SW4*%
X184061666Y-110747261D02*
X184204523Y-110794880D01*
X184442619Y-110794880D01*
X184537857Y-110747261D01*
X184585476Y-110699642D01*
X184633095Y-110604404D01*
X184633095Y-110509166D01*
X184585476Y-110413928D01*
X184537857Y-110366309D01*
X184442619Y-110318690D01*
X184252142Y-110271071D01*
X184156904Y-110223452D01*
X184109285Y-110175833D01*
X184061666Y-110080595D01*
X184061666Y-109985357D01*
X184109285Y-109890119D01*
X184156904Y-109842500D01*
X184252142Y-109794880D01*
X184490238Y-109794880D01*
X184633095Y-109842500D01*
X184966428Y-109794880D02*
X185204523Y-110794880D01*
X185395000Y-110080595D01*
X185585476Y-110794880D01*
X185823571Y-109794880D01*
X186633095Y-110128214D02*
X186633095Y-110794880D01*
X186395000Y-109747261D02*
X186156904Y-110461547D01*
X186775952Y-110461547D01*
%TO.C,U3*%
X203708095Y-126452380D02*
X203708095Y-127261904D01*
X203755714Y-127357142D01*
X203803333Y-127404761D01*
X203898571Y-127452380D01*
X204089047Y-127452380D01*
X204184285Y-127404761D01*
X204231904Y-127357142D01*
X204279523Y-127261904D01*
X204279523Y-126452380D01*
X204660476Y-126452380D02*
X205279523Y-126452380D01*
X204946190Y-126833333D01*
X205089047Y-126833333D01*
X205184285Y-126880952D01*
X205231904Y-126928571D01*
X205279523Y-127023809D01*
X205279523Y-127261904D01*
X205231904Y-127357142D01*
X205184285Y-127404761D01*
X205089047Y-127452380D01*
X204803333Y-127452380D01*
X204708095Y-127404761D01*
X204660476Y-127357142D01*
%TO.C,C9*%
X157202142Y-136691666D02*
X157249761Y-136739285D01*
X157297380Y-136882142D01*
X157297380Y-136977380D01*
X157249761Y-137120238D01*
X157154523Y-137215476D01*
X157059285Y-137263095D01*
X156868809Y-137310714D01*
X156725952Y-137310714D01*
X156535476Y-137263095D01*
X156440238Y-137215476D01*
X156345000Y-137120238D01*
X156297380Y-136977380D01*
X156297380Y-136882142D01*
X156345000Y-136739285D01*
X156392619Y-136691666D01*
X157297380Y-136215476D02*
X157297380Y-136025000D01*
X157249761Y-135929761D01*
X157202142Y-135882142D01*
X157059285Y-135786904D01*
X156868809Y-135739285D01*
X156487857Y-135739285D01*
X156392619Y-135786904D01*
X156345000Y-135834523D01*
X156297380Y-135929761D01*
X156297380Y-136120238D01*
X156345000Y-136215476D01*
X156392619Y-136263095D01*
X156487857Y-136310714D01*
X156725952Y-136310714D01*
X156821190Y-136263095D01*
X156868809Y-136215476D01*
X156916428Y-136120238D01*
X156916428Y-135929761D01*
X156868809Y-135834523D01*
X156821190Y-135786904D01*
X156725952Y-135739285D01*
%TO.C,U11*%
X100361904Y-106132380D02*
X100361904Y-106941904D01*
X100409523Y-107037142D01*
X100457142Y-107084761D01*
X100552380Y-107132380D01*
X100742857Y-107132380D01*
X100838095Y-107084761D01*
X100885714Y-107037142D01*
X100933333Y-106941904D01*
X100933333Y-106132380D01*
X101933333Y-107132380D02*
X101361904Y-107132380D01*
X101647619Y-107132380D02*
X101647619Y-106132380D01*
X101552380Y-106275238D01*
X101457142Y-106370476D01*
X101361904Y-106418095D01*
X102885714Y-107132380D02*
X102314285Y-107132380D01*
X102600000Y-107132380D02*
X102600000Y-106132380D01*
X102504761Y-106275238D01*
X102409523Y-106370476D01*
X102314285Y-106418095D01*
%TO.C,C14*%
X96512142Y-133707142D02*
X96464523Y-133754761D01*
X96321666Y-133802380D01*
X96226428Y-133802380D01*
X96083571Y-133754761D01*
X95988333Y-133659523D01*
X95940714Y-133564285D01*
X95893095Y-133373809D01*
X95893095Y-133230952D01*
X95940714Y-133040476D01*
X95988333Y-132945238D01*
X96083571Y-132850000D01*
X96226428Y-132802380D01*
X96321666Y-132802380D01*
X96464523Y-132850000D01*
X96512142Y-132897619D01*
X97464523Y-133802380D02*
X96893095Y-133802380D01*
X97178809Y-133802380D02*
X97178809Y-132802380D01*
X97083571Y-132945238D01*
X96988333Y-133040476D01*
X96893095Y-133088095D01*
X98321666Y-133135714D02*
X98321666Y-133802380D01*
X98083571Y-132754761D02*
X97845476Y-133469047D01*
X98464523Y-133469047D01*
%TO.C,U8*%
X162433095Y-156932380D02*
X162433095Y-157741904D01*
X162480714Y-157837142D01*
X162528333Y-157884761D01*
X162623571Y-157932380D01*
X162814047Y-157932380D01*
X162909285Y-157884761D01*
X162956904Y-157837142D01*
X163004523Y-157741904D01*
X163004523Y-156932380D01*
X163623571Y-157360952D02*
X163528333Y-157313333D01*
X163480714Y-157265714D01*
X163433095Y-157170476D01*
X163433095Y-157122857D01*
X163480714Y-157027619D01*
X163528333Y-156980000D01*
X163623571Y-156932380D01*
X163814047Y-156932380D01*
X163909285Y-156980000D01*
X163956904Y-157027619D01*
X164004523Y-157122857D01*
X164004523Y-157170476D01*
X163956904Y-157265714D01*
X163909285Y-157313333D01*
X163814047Y-157360952D01*
X163623571Y-157360952D01*
X163528333Y-157408571D01*
X163480714Y-157456190D01*
X163433095Y-157551428D01*
X163433095Y-157741904D01*
X163480714Y-157837142D01*
X163528333Y-157884761D01*
X163623571Y-157932380D01*
X163814047Y-157932380D01*
X163909285Y-157884761D01*
X163956904Y-157837142D01*
X164004523Y-157741904D01*
X164004523Y-157551428D01*
X163956904Y-157456190D01*
X163909285Y-157408571D01*
X163814047Y-157360952D01*
%TO.C,D3*%
X206192380Y-115673095D02*
X205192380Y-115673095D01*
X205192380Y-115435000D01*
X205240000Y-115292142D01*
X205335238Y-115196904D01*
X205430476Y-115149285D01*
X205620952Y-115101666D01*
X205763809Y-115101666D01*
X205954285Y-115149285D01*
X206049523Y-115196904D01*
X206144761Y-115292142D01*
X206192380Y-115435000D01*
X206192380Y-115673095D01*
X205192380Y-114768333D02*
X205192380Y-114149285D01*
X205573333Y-114482619D01*
X205573333Y-114339761D01*
X205620952Y-114244523D01*
X205668571Y-114196904D01*
X205763809Y-114149285D01*
X206001904Y-114149285D01*
X206097142Y-114196904D01*
X206144761Y-114244523D01*
X206192380Y-114339761D01*
X206192380Y-114625476D01*
X206144761Y-114720714D01*
X206097142Y-114768333D01*
%TO.C,R10*%
X131262380Y-127642857D02*
X130786190Y-127976190D01*
X131262380Y-128214285D02*
X130262380Y-128214285D01*
X130262380Y-127833333D01*
X130310000Y-127738095D01*
X130357619Y-127690476D01*
X130452857Y-127642857D01*
X130595714Y-127642857D01*
X130690952Y-127690476D01*
X130738571Y-127738095D01*
X130786190Y-127833333D01*
X130786190Y-128214285D01*
X131262380Y-126690476D02*
X131262380Y-127261904D01*
X131262380Y-126976190D02*
X130262380Y-126976190D01*
X130405238Y-127071428D01*
X130500476Y-127166666D01*
X130548095Y-127261904D01*
X130262380Y-126071428D02*
X130262380Y-125976190D01*
X130310000Y-125880952D01*
X130357619Y-125833333D01*
X130452857Y-125785714D01*
X130643333Y-125738095D01*
X130881428Y-125738095D01*
X131071904Y-125785714D01*
X131167142Y-125833333D01*
X131214761Y-125880952D01*
X131262380Y-125976190D01*
X131262380Y-126071428D01*
X131214761Y-126166666D01*
X131167142Y-126214285D01*
X131071904Y-126261904D01*
X130881428Y-126309523D01*
X130643333Y-126309523D01*
X130452857Y-126261904D01*
X130357619Y-126214285D01*
X130310000Y-126166666D01*
X130262380Y-126071428D01*
%TO.C,U4*%
X183388095Y-125817380D02*
X183388095Y-126626904D01*
X183435714Y-126722142D01*
X183483333Y-126769761D01*
X183578571Y-126817380D01*
X183769047Y-126817380D01*
X183864285Y-126769761D01*
X183911904Y-126722142D01*
X183959523Y-126626904D01*
X183959523Y-125817380D01*
X184864285Y-126150714D02*
X184864285Y-126817380D01*
X184626190Y-125769761D02*
X184388095Y-126484047D01*
X185007142Y-126484047D01*
%TO.C,R17*%
X131437142Y-140312380D02*
X131103809Y-139836190D01*
X130865714Y-140312380D02*
X130865714Y-139312380D01*
X131246666Y-139312380D01*
X131341904Y-139360000D01*
X131389523Y-139407619D01*
X131437142Y-139502857D01*
X131437142Y-139645714D01*
X131389523Y-139740952D01*
X131341904Y-139788571D01*
X131246666Y-139836190D01*
X130865714Y-139836190D01*
X132389523Y-140312380D02*
X131818095Y-140312380D01*
X132103809Y-140312380D02*
X132103809Y-139312380D01*
X132008571Y-139455238D01*
X131913333Y-139550476D01*
X131818095Y-139598095D01*
X132722857Y-139312380D02*
X133389523Y-139312380D01*
X132960952Y-140312380D01*
%TO.C,R3*%
X132548333Y-116657380D02*
X132215000Y-116181190D01*
X131976904Y-116657380D02*
X131976904Y-115657380D01*
X132357857Y-115657380D01*
X132453095Y-115705000D01*
X132500714Y-115752619D01*
X132548333Y-115847857D01*
X132548333Y-115990714D01*
X132500714Y-116085952D01*
X132453095Y-116133571D01*
X132357857Y-116181190D01*
X131976904Y-116181190D01*
X132881666Y-115657380D02*
X133500714Y-115657380D01*
X133167380Y-116038333D01*
X133310238Y-116038333D01*
X133405476Y-116085952D01*
X133453095Y-116133571D01*
X133500714Y-116228809D01*
X133500714Y-116466904D01*
X133453095Y-116562142D01*
X133405476Y-116609761D01*
X133310238Y-116657380D01*
X133024523Y-116657380D01*
X132929285Y-116609761D01*
X132881666Y-116562142D01*
%TO.C,R6*%
X121102380Y-125896666D02*
X120626190Y-126230000D01*
X121102380Y-126468095D02*
X120102380Y-126468095D01*
X120102380Y-126087142D01*
X120150000Y-125991904D01*
X120197619Y-125944285D01*
X120292857Y-125896666D01*
X120435714Y-125896666D01*
X120530952Y-125944285D01*
X120578571Y-125991904D01*
X120626190Y-126087142D01*
X120626190Y-126468095D01*
X120102380Y-125039523D02*
X120102380Y-125230000D01*
X120150000Y-125325238D01*
X120197619Y-125372857D01*
X120340476Y-125468095D01*
X120530952Y-125515714D01*
X120911904Y-125515714D01*
X121007142Y-125468095D01*
X121054761Y-125420476D01*
X121102380Y-125325238D01*
X121102380Y-125134761D01*
X121054761Y-125039523D01*
X121007142Y-124991904D01*
X120911904Y-124944285D01*
X120673809Y-124944285D01*
X120578571Y-124991904D01*
X120530952Y-125039523D01*
X120483333Y-125134761D01*
X120483333Y-125325238D01*
X120530952Y-125420476D01*
X120578571Y-125468095D01*
X120673809Y-125515714D01*
%TO.C,R2*%
X198588333Y-115227380D02*
X198255000Y-114751190D01*
X198016904Y-115227380D02*
X198016904Y-114227380D01*
X198397857Y-114227380D01*
X198493095Y-114275000D01*
X198540714Y-114322619D01*
X198588333Y-114417857D01*
X198588333Y-114560714D01*
X198540714Y-114655952D01*
X198493095Y-114703571D01*
X198397857Y-114751190D01*
X198016904Y-114751190D01*
X198969285Y-114322619D02*
X199016904Y-114275000D01*
X199112142Y-114227380D01*
X199350238Y-114227380D01*
X199445476Y-114275000D01*
X199493095Y-114322619D01*
X199540714Y-114417857D01*
X199540714Y-114513095D01*
X199493095Y-114655952D01*
X198921666Y-115227380D01*
X199540714Y-115227380D01*
%TO.C,J1*%
X135556666Y-121372380D02*
X135556666Y-122086666D01*
X135509047Y-122229523D01*
X135413809Y-122324761D01*
X135270952Y-122372380D01*
X135175714Y-122372380D01*
X136556666Y-122372380D02*
X135985238Y-122372380D01*
X136270952Y-122372380D02*
X136270952Y-121372380D01*
X136175714Y-121515238D01*
X136080476Y-121610476D01*
X135985238Y-121658095D01*
%TO.C,SW1*%
X128869761Y-112458333D02*
X128917380Y-112315476D01*
X128917380Y-112077380D01*
X128869761Y-111982142D01*
X128822142Y-111934523D01*
X128726904Y-111886904D01*
X128631666Y-111886904D01*
X128536428Y-111934523D01*
X128488809Y-111982142D01*
X128441190Y-112077380D01*
X128393571Y-112267857D01*
X128345952Y-112363095D01*
X128298333Y-112410714D01*
X128203095Y-112458333D01*
X128107857Y-112458333D01*
X128012619Y-112410714D01*
X127965000Y-112363095D01*
X127917380Y-112267857D01*
X127917380Y-112029761D01*
X127965000Y-111886904D01*
X127917380Y-111553571D02*
X128917380Y-111315476D01*
X128203095Y-111125000D01*
X128917380Y-110934523D01*
X127917380Y-110696428D01*
X128917380Y-109791666D02*
X128917380Y-110363095D01*
X128917380Y-110077380D02*
X127917380Y-110077380D01*
X128060238Y-110172619D01*
X128155476Y-110267857D01*
X128203095Y-110363095D01*
%TO.C,C7*%
X117832142Y-134786666D02*
X117879761Y-134834285D01*
X117927380Y-134977142D01*
X117927380Y-135072380D01*
X117879761Y-135215238D01*
X117784523Y-135310476D01*
X117689285Y-135358095D01*
X117498809Y-135405714D01*
X117355952Y-135405714D01*
X117165476Y-135358095D01*
X117070238Y-135310476D01*
X116975000Y-135215238D01*
X116927380Y-135072380D01*
X116927380Y-134977142D01*
X116975000Y-134834285D01*
X117022619Y-134786666D01*
X116927380Y-134453333D02*
X116927380Y-133786666D01*
X117927380Y-134215238D01*
%TO.C,H4*%
X86233095Y-154757380D02*
X86233095Y-153757380D01*
X86233095Y-154233571D02*
X86804523Y-154233571D01*
X86804523Y-154757380D02*
X86804523Y-153757380D01*
X87709285Y-154090714D02*
X87709285Y-154757380D01*
X87471190Y-153709761D02*
X87233095Y-154424047D01*
X87852142Y-154424047D01*
%TO.C,U1*%
X201803095Y-115657380D02*
X201803095Y-116466904D01*
X201850714Y-116562142D01*
X201898333Y-116609761D01*
X201993571Y-116657380D01*
X202184047Y-116657380D01*
X202279285Y-116609761D01*
X202326904Y-116562142D01*
X202374523Y-116466904D01*
X202374523Y-115657380D01*
X203374523Y-116657380D02*
X202803095Y-116657380D01*
X203088809Y-116657380D02*
X203088809Y-115657380D01*
X202993571Y-115800238D01*
X202898333Y-115895476D01*
X202803095Y-115943095D01*
%TO.C,U17*%
X90257380Y-124428095D02*
X91066904Y-124428095D01*
X91162142Y-124380476D01*
X91209761Y-124332857D01*
X91257380Y-124237619D01*
X91257380Y-124047142D01*
X91209761Y-123951904D01*
X91162142Y-123904285D01*
X91066904Y-123856666D01*
X90257380Y-123856666D01*
X91257380Y-122856666D02*
X91257380Y-123428095D01*
X91257380Y-123142380D02*
X90257380Y-123142380D01*
X90400238Y-123237619D01*
X90495476Y-123332857D01*
X90543095Y-123428095D01*
X90257380Y-122523333D02*
X90257380Y-121856666D01*
X91257380Y-122285238D01*
%TO.C,SW3*%
X172631666Y-110747261D02*
X172774523Y-110794880D01*
X173012619Y-110794880D01*
X173107857Y-110747261D01*
X173155476Y-110699642D01*
X173203095Y-110604404D01*
X173203095Y-110509166D01*
X173155476Y-110413928D01*
X173107857Y-110366309D01*
X173012619Y-110318690D01*
X172822142Y-110271071D01*
X172726904Y-110223452D01*
X172679285Y-110175833D01*
X172631666Y-110080595D01*
X172631666Y-109985357D01*
X172679285Y-109890119D01*
X172726904Y-109842500D01*
X172822142Y-109794880D01*
X173060238Y-109794880D01*
X173203095Y-109842500D01*
X173536428Y-109794880D02*
X173774523Y-110794880D01*
X173965000Y-110080595D01*
X174155476Y-110794880D01*
X174393571Y-109794880D01*
X174679285Y-109794880D02*
X175298333Y-109794880D01*
X174965000Y-110175833D01*
X175107857Y-110175833D01*
X175203095Y-110223452D01*
X175250714Y-110271071D01*
X175298333Y-110366309D01*
X175298333Y-110604404D01*
X175250714Y-110699642D01*
X175203095Y-110747261D01*
X175107857Y-110794880D01*
X174822142Y-110794880D01*
X174726904Y-110747261D01*
X174679285Y-110699642D01*
%TO.C,C12*%
X105402142Y-133707142D02*
X105354523Y-133754761D01*
X105211666Y-133802380D01*
X105116428Y-133802380D01*
X104973571Y-133754761D01*
X104878333Y-133659523D01*
X104830714Y-133564285D01*
X104783095Y-133373809D01*
X104783095Y-133230952D01*
X104830714Y-133040476D01*
X104878333Y-132945238D01*
X104973571Y-132850000D01*
X105116428Y-132802380D01*
X105211666Y-132802380D01*
X105354523Y-132850000D01*
X105402142Y-132897619D01*
X106354523Y-133802380D02*
X105783095Y-133802380D01*
X106068809Y-133802380D02*
X106068809Y-132802380D01*
X105973571Y-132945238D01*
X105878333Y-133040476D01*
X105783095Y-133088095D01*
X106735476Y-132897619D02*
X106783095Y-132850000D01*
X106878333Y-132802380D01*
X107116428Y-132802380D01*
X107211666Y-132850000D01*
X107259285Y-132897619D01*
X107306904Y-132992857D01*
X107306904Y-133088095D01*
X107259285Y-133230952D01*
X106687857Y-133802380D01*
X107306904Y-133802380D01*
%TO.C,U5*%
X197993095Y-156932380D02*
X197993095Y-157741904D01*
X198040714Y-157837142D01*
X198088333Y-157884761D01*
X198183571Y-157932380D01*
X198374047Y-157932380D01*
X198469285Y-157884761D01*
X198516904Y-157837142D01*
X198564523Y-157741904D01*
X198564523Y-156932380D01*
X199516904Y-156932380D02*
X199040714Y-156932380D01*
X198993095Y-157408571D01*
X199040714Y-157360952D01*
X199135952Y-157313333D01*
X199374047Y-157313333D01*
X199469285Y-157360952D01*
X199516904Y-157408571D01*
X199564523Y-157503809D01*
X199564523Y-157741904D01*
X199516904Y-157837142D01*
X199469285Y-157884761D01*
X199374047Y-157932380D01*
X199135952Y-157932380D01*
X199040714Y-157884761D01*
X198993095Y-157837142D01*
D11*
%TO.C,R15*%
X162965000Y-107855000D02*
X165965000Y-107855000D01*
X162965000Y-111855000D02*
X165965000Y-111855000D01*
X166965000Y-109855000D02*
G75*
G03*
X166965000Y-109855000I-2500000J0D01*
G01*
%TO.C,R11*%
X120127500Y-135017742D02*
X120127500Y-135492258D01*
X121172500Y-135017742D02*
X121172500Y-135492258D01*
%TO.C,R21*%
X90070000Y-145383000D02*
X92810000Y-145383000D01*
X90070000Y-138843000D02*
X90070000Y-145383000D01*
X91440000Y-148693000D02*
X91440000Y-145383000D01*
X92810000Y-145383000D02*
X92810000Y-138843000D01*
X92810000Y-138843000D02*
X90070000Y-138843000D01*
X91440000Y-135533000D02*
X91440000Y-138843000D01*
%TO.C,R22*%
X93880000Y-138843000D02*
X93880000Y-145383000D01*
X96620000Y-145383000D02*
X96620000Y-138843000D01*
X95250000Y-135533000D02*
X95250000Y-138843000D01*
X93880000Y-145383000D02*
X96620000Y-145383000D01*
X95250000Y-148693000D02*
X95250000Y-145383000D01*
X96620000Y-138843000D02*
X93880000Y-138843000D01*
%TO.C,R16*%
X168797500Y-109617742D02*
X168797500Y-110092258D01*
X167752500Y-109617742D02*
X167752500Y-110092258D01*
%TO.C,R9*%
X119267500Y-131207742D02*
X119267500Y-131682258D01*
X118222500Y-131207742D02*
X118222500Y-131682258D01*
%TO.C,RV2*%
X150670000Y-134245000D02*
X150670000Y-127405000D01*
X157910000Y-127405000D02*
X154880000Y-127405000D01*
X157910000Y-134245000D02*
X157910000Y-127405000D01*
X153580000Y-134245000D02*
X150670000Y-134245000D01*
X153580000Y-127405000D02*
X150670000Y-127405000D01*
X157910000Y-134245000D02*
X154880000Y-134245000D01*
%TO.C,R4*%
X135017742Y-120537500D02*
X135492258Y-120537500D01*
X135017742Y-119492500D02*
X135492258Y-119492500D01*
%TO.C,SW5*%
X200685000Y-112462500D02*
X200685000Y-112972500D01*
X192965000Y-105962500D02*
X200685000Y-105962500D01*
X192965000Y-112972500D02*
X193485000Y-112972500D01*
X200165000Y-112972500D02*
X200685000Y-112972500D01*
X193485000Y-109632500D02*
X193485000Y-109862500D01*
X193485000Y-109632500D02*
X194025000Y-109632500D01*
X192965000Y-112462500D02*
X192965000Y-112972500D01*
X200165000Y-112462500D02*
X200165000Y-112972500D01*
X195125000Y-109632500D02*
X198525000Y-109632500D01*
X199625000Y-109632500D02*
X200165000Y-109632500D01*
X200165000Y-109632500D02*
X200165000Y-109862500D01*
X200685000Y-105962500D02*
X200685000Y-109862500D01*
X192965000Y-105962500D02*
X192965000Y-109862500D01*
X193485000Y-112462500D02*
X193485000Y-112972500D01*
%TO.C,D2*%
X149590000Y-129195000D02*
X147590000Y-129195000D01*
X149590000Y-129195000D02*
X149590000Y-133095000D01*
X147590000Y-129195000D02*
X147590000Y-133095000D01*
%TO.C,L1*%
X146170000Y-129420000D02*
X146170000Y-132220000D01*
X135770000Y-132220000D02*
X135770000Y-129420000D01*
X135770000Y-129420000D02*
X146170000Y-129420000D01*
X135770000Y-139820000D02*
X146170000Y-139820000D01*
X146170000Y-139820000D02*
X146170000Y-137020000D01*
X135770000Y-137020000D02*
X135770000Y-139820000D01*
%TO.C,R5*%
X169307742Y-121807500D02*
X169782258Y-121807500D01*
X169307742Y-120762500D02*
X169782258Y-120762500D01*
%TO.C,R13*%
X149112500Y-135652742D02*
X149112500Y-136127258D01*
X148067500Y-135652742D02*
X148067500Y-136127258D01*
%TO.C,C4*%
X110349420Y-131570000D02*
X110630580Y-131570000D01*
X110349420Y-132590000D02*
X110630580Y-132590000D01*
%TO.C,R19*%
X169645000Y-145320000D02*
X166905000Y-145320000D01*
X166905000Y-145320000D02*
X166905000Y-151860000D01*
X169645000Y-151860000D02*
X169645000Y-145320000D01*
X168275000Y-155170000D02*
X168275000Y-151860000D01*
X168275000Y-142010000D02*
X168275000Y-145320000D01*
X166905000Y-151860000D02*
X169645000Y-151860000D01*
%TO.C,U12*%
X131225079Y-149225000D02*
G75*
G03*
X131225079Y-149225000I-8035079J0D01*
G01*
X127690000Y-149225000D02*
G75*
G03*
X127690000Y-149225000I-4500000J0D01*
G01*
%TO.C,C11*%
X113805580Y-118870000D02*
X113524420Y-118870000D01*
X113805580Y-119890000D02*
X113524420Y-119890000D01*
%TO.C,C5*%
X118235000Y-128129420D02*
X118235000Y-128410580D01*
X119255000Y-128129420D02*
X119255000Y-128410580D01*
%TO.C,R18*%
X208407000Y-148439000D02*
X208407000Y-145129000D01*
X207037000Y-138589000D02*
X207037000Y-145129000D01*
X208407000Y-135279000D02*
X208407000Y-138589000D01*
X209777000Y-138589000D02*
X207037000Y-138589000D01*
X209777000Y-145129000D02*
X209777000Y-138589000D01*
X207037000Y-145129000D02*
X209777000Y-145129000D01*
%TO.C,D1*%
X175605000Y-122285000D02*
X175605000Y-120285000D01*
X175605000Y-122285000D02*
X171705000Y-122285000D01*
X175605000Y-120285000D02*
X171705000Y-120285000D01*
%TO.C,C8*%
X101954420Y-131570000D02*
X102235580Y-131570000D01*
X101954420Y-132590000D02*
X102235580Y-132590000D01*
%TO.C,C1*%
X129368349Y-117963000D02*
X129368349Y-120880000D01*
X130168349Y-122960000D02*
X130168349Y-125586000D01*
X129448349Y-122960000D02*
X129448349Y-125856000D01*
X131528349Y-119316000D02*
X131528349Y-124524000D01*
X131488349Y-119269000D02*
X131488349Y-124571000D01*
X130328349Y-122960000D02*
X130328349Y-125504000D01*
X131088349Y-122960000D02*
X131088349Y-124975000D01*
X128367349Y-117840000D02*
X128367349Y-126000000D01*
X130368349Y-118358000D02*
X130368349Y-120880000D01*
X130688349Y-118555000D02*
X130688349Y-120880000D01*
X130168349Y-118254000D02*
X130168349Y-120880000D01*
X128527349Y-117843000D02*
X128527349Y-125997000D01*
X129168349Y-122960000D02*
X129168349Y-125922000D01*
X130008349Y-118180000D02*
X130008349Y-120880000D01*
X130088349Y-118216000D02*
X130088349Y-120880000D01*
X132328349Y-120822000D02*
X132328349Y-123018000D01*
X124357651Y-119205000D02*
X124357651Y-120005000D01*
X129128349Y-122960000D02*
X129128349Y-125930000D01*
X131808349Y-119692000D02*
X131808349Y-124148000D01*
X128927349Y-117878000D02*
X128927349Y-125962000D01*
X132448349Y-121387000D02*
X132448349Y-122453000D01*
X131088349Y-118865000D02*
X131088349Y-120880000D01*
X129488349Y-117995000D02*
X129488349Y-120880000D01*
X130088349Y-122960000D02*
X130088349Y-125624000D01*
X128847349Y-117868000D02*
X128847349Y-125972000D01*
X123957651Y-119605000D02*
X124757651Y-119605000D01*
X131128349Y-118901000D02*
X131128349Y-120880000D01*
X129968349Y-118163000D02*
X129968349Y-120880000D01*
X129728349Y-122960000D02*
X129728349Y-125770000D01*
X129888349Y-118130000D02*
X129888349Y-120880000D01*
X128767349Y-117859000D02*
X128767349Y-125981000D01*
X130408349Y-118380000D02*
X130408349Y-120880000D01*
X129288349Y-122960000D02*
X129288349Y-125896000D01*
X129888349Y-122960000D02*
X129888349Y-125710000D01*
X130448349Y-118403000D02*
X130448349Y-120880000D01*
X131448349Y-119223000D02*
X131448349Y-124617000D01*
X129208349Y-117926000D02*
X129208349Y-120880000D01*
X132368349Y-120972000D02*
X132368349Y-122868000D01*
X131968349Y-119956000D02*
X131968349Y-123884000D01*
X131888349Y-119818000D02*
X131888349Y-124022000D01*
X129248349Y-122960000D02*
X129248349Y-125905000D01*
X130528349Y-122960000D02*
X130528349Y-125389000D01*
X129808349Y-118099000D02*
X129808349Y-120880000D01*
X132288349Y-120691000D02*
X132288349Y-123149000D01*
X130728349Y-122960000D02*
X130728349Y-125258000D01*
X129007349Y-117890000D02*
X129007349Y-125950000D01*
X129648349Y-122960000D02*
X129648349Y-125797000D01*
X128487349Y-117841000D02*
X128487349Y-125999000D01*
X131648349Y-119466000D02*
X131648349Y-124374000D01*
X130208349Y-122960000D02*
X130208349Y-125567000D01*
X129528349Y-122960000D02*
X129528349Y-125834000D01*
X132408349Y-121152000D02*
X132408349Y-122688000D01*
X130888349Y-122960000D02*
X130888349Y-125140000D01*
X129928349Y-118146000D02*
X129928349Y-120880000D01*
X130408349Y-122960000D02*
X130408349Y-125460000D01*
X131688349Y-119520000D02*
X131688349Y-124320000D01*
X129688349Y-122960000D02*
X129688349Y-125783000D01*
X129088349Y-117903000D02*
X129088349Y-120880000D01*
X130688349Y-122960000D02*
X130688349Y-125285000D01*
X129328349Y-122960000D02*
X129328349Y-125887000D01*
X130528349Y-118451000D02*
X130528349Y-120880000D01*
X132128349Y-120275000D02*
X132128349Y-123565000D01*
X130968349Y-118764000D02*
X130968349Y-120880000D01*
X130848349Y-118670000D02*
X130848349Y-120880000D01*
X129728349Y-118070000D02*
X129728349Y-120880000D01*
X129168349Y-117918000D02*
X129168349Y-120880000D01*
X128647349Y-117849000D02*
X128647349Y-125991000D01*
X130008349Y-122960000D02*
X130008349Y-125660000D01*
X130128349Y-122960000D02*
X130128349Y-125606000D01*
X129608349Y-118031000D02*
X129608349Y-120880000D01*
X131128349Y-122960000D02*
X131128349Y-124939000D01*
X129768349Y-118085000D02*
X129768349Y-120880000D01*
X129488349Y-122960000D02*
X129488349Y-125845000D01*
X129408349Y-122960000D02*
X129408349Y-125867000D01*
X128447349Y-117840000D02*
X128447349Y-126000000D01*
X130608349Y-118502000D02*
X130608349Y-120880000D01*
X130128349Y-118234000D02*
X130128349Y-120880000D01*
X129328349Y-117953000D02*
X129328349Y-120880000D01*
X129568349Y-122960000D02*
X129568349Y-125822000D01*
X130608349Y-122960000D02*
X130608349Y-125338000D01*
X128807349Y-117863000D02*
X128807349Y-125977000D01*
X130248349Y-122960000D02*
X130248349Y-125547000D01*
X128607349Y-117846000D02*
X128607349Y-125994000D01*
X129528349Y-118006000D02*
X129528349Y-120880000D01*
X130448349Y-122960000D02*
X130448349Y-125437000D01*
X129128349Y-117910000D02*
X129128349Y-120880000D01*
X129768349Y-122960000D02*
X129768349Y-125755000D01*
X128687349Y-117852000D02*
X128687349Y-125988000D01*
X129208349Y-122960000D02*
X129208349Y-125914000D01*
X129248349Y-117935000D02*
X129248349Y-120880000D01*
X130968349Y-122960000D02*
X130968349Y-125076000D01*
X129648349Y-118043000D02*
X129648349Y-120880000D01*
X131008349Y-118796000D02*
X131008349Y-120880000D01*
X129047349Y-117896000D02*
X129047349Y-125944000D01*
X130048349Y-118198000D02*
X130048349Y-120880000D01*
X128407349Y-117840000D02*
X128407349Y-126000000D01*
X129808349Y-122960000D02*
X129808349Y-125741000D01*
X128567349Y-117844000D02*
X128567349Y-125996000D01*
X130928349Y-122960000D02*
X130928349Y-125109000D01*
X131848349Y-119754000D02*
X131848349Y-124086000D01*
X128727349Y-117855000D02*
X128727349Y-125985000D01*
X129848349Y-118115000D02*
X129848349Y-120880000D01*
X130808349Y-122960000D02*
X130808349Y-125200000D01*
X129448349Y-117984000D02*
X129448349Y-120880000D01*
X131168349Y-118937000D02*
X131168349Y-124903000D01*
X130488349Y-118427000D02*
X130488349Y-120880000D01*
X130768349Y-118611000D02*
X130768349Y-120880000D01*
X131048349Y-122960000D02*
X131048349Y-125010000D01*
X132208349Y-120467000D02*
X132208349Y-123373000D01*
X129088349Y-122960000D02*
X129088349Y-125937000D01*
X131568349Y-119364000D02*
X131568349Y-124476000D01*
X130568349Y-118476000D02*
X130568349Y-120880000D01*
X132088349Y-120189000D02*
X132088349Y-123651000D01*
X129688349Y-118057000D02*
X129688349Y-120880000D01*
X129568349Y-118018000D02*
X129568349Y-120880000D01*
X130888349Y-118700000D02*
X130888349Y-120880000D01*
X131048349Y-118830000D02*
X131048349Y-120880000D01*
X129288349Y-117944000D02*
X129288349Y-120880000D01*
X128887349Y-117872000D02*
X128887349Y-125968000D01*
X130728349Y-118582000D02*
X130728349Y-120880000D01*
X129368349Y-122960000D02*
X129368349Y-125877000D01*
X130808349Y-118640000D02*
X130808349Y-120880000D01*
X130648349Y-122960000D02*
X130648349Y-125312000D01*
X131608349Y-119415000D02*
X131608349Y-124425000D01*
X130768349Y-122960000D02*
X130768349Y-125229000D01*
X131248349Y-119013000D02*
X131248349Y-124827000D01*
X131728349Y-119575000D02*
X131728349Y-124265000D01*
X129848349Y-122960000D02*
X129848349Y-125725000D01*
X131008349Y-122960000D02*
X131008349Y-125044000D01*
X132168349Y-120368000D02*
X132168349Y-123472000D01*
X132248349Y-120574000D02*
X132248349Y-123266000D01*
X132048349Y-120107000D02*
X132048349Y-123733000D01*
X131208349Y-118975000D02*
X131208349Y-124865000D01*
X130848349Y-122960000D02*
X130848349Y-125170000D01*
X129608349Y-122960000D02*
X129608349Y-125809000D01*
X130568349Y-122960000D02*
X130568349Y-125364000D01*
X130248349Y-118293000D02*
X130248349Y-120880000D01*
X130488349Y-122960000D02*
X130488349Y-125413000D01*
X132008349Y-120030000D02*
X132008349Y-123810000D01*
X128967349Y-117883000D02*
X128967349Y-125957000D01*
X131328349Y-119094000D02*
X131328349Y-124746000D01*
X129408349Y-117973000D02*
X129408349Y-120880000D01*
X131288349Y-119053000D02*
X131288349Y-124787000D01*
X130648349Y-118528000D02*
X130648349Y-120880000D01*
X131768349Y-119633000D02*
X131768349Y-124207000D01*
X130368349Y-122960000D02*
X130368349Y-125482000D01*
X131368349Y-119136000D02*
X131368349Y-124704000D01*
X130208349Y-118273000D02*
X130208349Y-120880000D01*
X129968349Y-122960000D02*
X129968349Y-125677000D01*
X130288349Y-122960000D02*
X130288349Y-125526000D01*
X130928349Y-118731000D02*
X130928349Y-120880000D01*
X131408349Y-119179000D02*
X131408349Y-124661000D01*
X130288349Y-118314000D02*
X130288349Y-120880000D01*
X130328349Y-118336000D02*
X130328349Y-120880000D01*
X131928349Y-119886000D02*
X131928349Y-123954000D01*
X130048349Y-122960000D02*
X130048349Y-125642000D01*
X129928349Y-122960000D02*
X129928349Y-125694000D01*
X132487349Y-121920000D02*
G75*
G03*
X132487349Y-121920000I-4120000J0D01*
G01*
%TO.C,RV1*%
X162130000Y-113405000D02*
X162130000Y-120245000D01*
X166460000Y-113405000D02*
X169370000Y-113405000D01*
X162130000Y-113405000D02*
X165160000Y-113405000D01*
X162130000Y-120245000D02*
X165160000Y-120245000D01*
X169370000Y-113405000D02*
X169370000Y-120245000D01*
X166460000Y-120245000D02*
X169370000Y-120245000D01*
%TO.C,R14*%
X149112500Y-138637742D02*
X149112500Y-139112258D01*
X148067500Y-138637742D02*
X148067500Y-139112258D01*
%TO.C,C3*%
X99554420Y-118870000D02*
X99835580Y-118870000D01*
X99554420Y-119890000D02*
X99835580Y-119890000D01*
%TO.C,C10*%
X109714420Y-118870000D02*
X109995580Y-118870000D01*
X109714420Y-119890000D02*
X109995580Y-119890000D01*
%TO.C,R8*%
X203608000Y-138589000D02*
X203608000Y-145129000D01*
X204978000Y-135279000D02*
X204978000Y-138589000D01*
X206348000Y-145129000D02*
X206348000Y-138589000D01*
X203608000Y-145129000D02*
X206348000Y-145129000D01*
X204978000Y-148439000D02*
X204978000Y-145129000D01*
X206348000Y-138589000D02*
X203608000Y-138589000D01*
%TO.C,J3*%
X125992500Y-116670000D02*
X127042500Y-116670000D01*
X127042500Y-115620000D02*
X127042500Y-116670000D01*
X126842500Y-101770000D02*
X126842500Y-116470000D01*
X117642500Y-116470000D02*
X117642500Y-114570000D01*
X120342500Y-116470000D02*
X117642500Y-116470000D01*
X117642500Y-110570000D02*
X117642500Y-101770000D01*
X117642500Y-101770000D02*
X126842500Y-101770000D01*
X126842500Y-116470000D02*
X124242500Y-116470000D01*
%TO.C,U14*%
X114715079Y-149225000D02*
G75*
G03*
X114715079Y-149225000I-8035079J0D01*
G01*
X111180000Y-149225000D02*
G75*
G03*
X111180000Y-149225000I-4500000J0D01*
G01*
%TO.C,C6*%
X103645580Y-119890000D02*
X103364420Y-119890000D01*
X103645580Y-118870000D02*
X103364420Y-118870000D01*
%TO.C,U15*%
X115210000Y-114000000D02*
X115210000Y-115500000D01*
X114940000Y-115500000D02*
X114940000Y-116600000D01*
X108310000Y-114000000D02*
X108310000Y-115500000D01*
X115210000Y-115500000D02*
X114940000Y-115500000D01*
X108580000Y-115500000D02*
X108580000Y-118330000D01*
X108310000Y-115500000D02*
X108580000Y-115500000D01*
%TO.C,R20*%
X131345000Y-152114000D02*
X134085000Y-152114000D01*
X132715000Y-155424000D02*
X132715000Y-152114000D01*
X132715000Y-142264000D02*
X132715000Y-145574000D01*
X134085000Y-145574000D02*
X131345000Y-145574000D01*
X134085000Y-152114000D02*
X134085000Y-145574000D01*
X131345000Y-145574000D02*
X131345000Y-152114000D01*
%TO.C,R12*%
X131842742Y-136002500D02*
X132317258Y-136002500D01*
X131842742Y-137047500D02*
X132317258Y-137047500D01*
%TO.C,U9*%
X146740000Y-149225000D02*
G75*
G03*
X146740000Y-149225000I-4500000J0D01*
G01*
X150275079Y-149225000D02*
G75*
G03*
X150275079Y-149225000I-8035079J0D01*
G01*
%TO.C,U6*%
X166825000Y-133350000D02*
X166825000Y-129490000D01*
X166825000Y-133350000D02*
X166825000Y-137210000D01*
X177345000Y-133350000D02*
X177345000Y-129490000D01*
X177345000Y-133350000D02*
X177345000Y-137210000D01*
X166825000Y-137210000D02*
X167080000Y-137210000D01*
X177345000Y-129490000D02*
X177090000Y-129490000D01*
X167080000Y-137210000D02*
X167080000Y-139025000D01*
X177345000Y-137210000D02*
X177090000Y-137210000D01*
X166825000Y-129490000D02*
X167080000Y-129490000D01*
%TO.C,R7*%
X206262500Y-120887258D02*
X206262500Y-120412742D01*
X205217500Y-120887258D02*
X205217500Y-120412742D01*
%TO.C,R1*%
X195977742Y-114822500D02*
X196452258Y-114822500D01*
X195977742Y-113777500D02*
X196452258Y-113777500D01*
%TO.C,U16*%
X115575000Y-128200000D02*
X115575000Y-129300000D01*
X115845000Y-128200000D02*
X115575000Y-128200000D01*
X108945000Y-126700000D02*
X108945000Y-128200000D01*
X115845000Y-126700000D02*
X115845000Y-128200000D01*
X109215000Y-128200000D02*
X109215000Y-131030000D01*
X108945000Y-128200000D02*
X109215000Y-128200000D01*
%TO.C,U10*%
X100055000Y-126700000D02*
X100055000Y-128200000D01*
X100325000Y-128200000D02*
X100325000Y-131030000D01*
X106685000Y-128200000D02*
X106685000Y-129300000D01*
X106955000Y-126700000D02*
X106955000Y-128200000D01*
X100055000Y-128200000D02*
X100325000Y-128200000D01*
X106955000Y-128200000D02*
X106685000Y-128200000D01*
%TO.C,C13*%
X114440580Y-132590000D02*
X114159420Y-132590000D01*
X114440580Y-131570000D02*
X114159420Y-131570000D01*
%TO.C,U7*%
X185835079Y-149225000D02*
G75*
G03*
X185835079Y-149225000I-8035079J0D01*
G01*
X182300000Y-149225000D02*
G75*
G03*
X182300000Y-149225000I-4500000J0D01*
G01*
%TO.C,C2*%
X93204420Y-131570000D02*
X93485580Y-131570000D01*
X93204420Y-132590000D02*
X93485580Y-132590000D01*
%TO.C,U2*%
X142010000Y-124035000D02*
X142010000Y-124815000D01*
X142010000Y-99070000D02*
X160250000Y-99070000D01*
X142010000Y-105490000D02*
X141630000Y-105490000D01*
X142010000Y-124815000D02*
X143010000Y-124815000D01*
X160250000Y-124815000D02*
X159250000Y-124815000D01*
X142010000Y-99070000D02*
X142010000Y-105490000D01*
X160250000Y-99070000D02*
X160250000Y-105490000D01*
X160250000Y-124035000D02*
X160250000Y-124815000D01*
%TO.C,U13*%
X125730000Y-137140000D02*
X123780000Y-137140000D01*
X125730000Y-127020000D02*
X127680000Y-127020000D01*
X125730000Y-137140000D02*
X127680000Y-137140000D01*
X125730000Y-127020000D02*
X122280000Y-127020000D01*
%TO.C,BT1*%
X180850000Y-121850000D02*
X178150000Y-121850000D01*
X178150000Y-121850000D02*
X178150000Y-119450000D01*
X178150000Y-119450000D02*
X180850000Y-119450000D01*
X186350000Y-120650000D02*
G75*
G03*
X186350000Y-120650000I-2200000J0D01*
G01*
X187650000Y-120650000D02*
G75*
G03*
X187650000Y-120650000I-3500000J0D01*
G01*
%TO.C,Q1*%
X140665000Y-125575000D02*
X140665000Y-125255000D01*
X137464000Y-126085000D02*
X137464000Y-125255000D01*
X143185000Y-128745000D02*
X143185000Y-125255000D01*
X137464000Y-128745000D02*
X137464000Y-127165000D01*
X143185000Y-128745000D02*
X134945000Y-128745000D01*
X134945000Y-128745000D02*
X134945000Y-125255000D01*
X143185000Y-125255000D02*
X134945000Y-125255000D01*
X140665000Y-128745000D02*
X140665000Y-127675000D01*
%TO.C,SW4*%
X181535000Y-112972500D02*
X182055000Y-112972500D01*
X182055000Y-109632500D02*
X182055000Y-109862500D01*
X188735000Y-112972500D02*
X189255000Y-112972500D01*
X189255000Y-112462500D02*
X189255000Y-112972500D01*
X181535000Y-112462500D02*
X181535000Y-112972500D01*
X188195000Y-109632500D02*
X188735000Y-109632500D01*
X189255000Y-105962500D02*
X189255000Y-109862500D01*
X188735000Y-112462500D02*
X188735000Y-112972500D01*
X182055000Y-109632500D02*
X182595000Y-109632500D01*
X188735000Y-109632500D02*
X188735000Y-109862500D01*
X183695000Y-109632500D02*
X187095000Y-109632500D01*
X181535000Y-105962500D02*
X181535000Y-109862500D01*
X181535000Y-105962500D02*
X189255000Y-105962500D01*
X182055000Y-112462500D02*
X182055000Y-112972500D01*
%TO.C,U3*%
X202735000Y-133350000D02*
X202735000Y-129490000D01*
X190965000Y-133350000D02*
X190965000Y-129490000D01*
X202735000Y-129490000D02*
X202490000Y-129490000D01*
X190965000Y-137210000D02*
X191210000Y-137210000D01*
X202735000Y-137210000D02*
X202490000Y-137210000D01*
X202490000Y-129490000D02*
X202490000Y-127675000D01*
X190965000Y-129490000D02*
X191210000Y-129490000D01*
X202735000Y-133350000D02*
X202735000Y-137210000D01*
X190965000Y-133350000D02*
X190965000Y-137210000D01*
%TO.C,C9*%
X160885000Y-137543349D02*
X157949000Y-137543349D01*
X160885000Y-138823349D02*
X158481000Y-138823349D01*
X165910000Y-137503349D02*
X162965000Y-137503349D01*
X165955000Y-137262349D02*
X157895000Y-137262349D01*
X165081000Y-139223349D02*
X162965000Y-139223349D01*
X164832000Y-139503349D02*
X159018000Y-139503349D01*
X160885000Y-139183349D02*
X158736000Y-139183349D01*
X165882000Y-137623349D02*
X162965000Y-137623349D01*
X163271000Y-140503349D02*
X160579000Y-140503349D01*
X165814000Y-137863349D02*
X162965000Y-137863349D01*
X160885000Y-138183349D02*
X158151000Y-138183349D01*
X160885000Y-137903349D02*
X158048000Y-137903349D01*
X165839000Y-137783349D02*
X162965000Y-137783349D01*
X160885000Y-138383349D02*
X158239000Y-138383349D01*
X165145000Y-139143349D02*
X162965000Y-139143349D01*
X160885000Y-138063349D02*
X158104000Y-138063349D01*
X160885000Y-138543349D02*
X158319000Y-138543349D01*
X165629000Y-138343349D02*
X162965000Y-138343349D01*
X164709000Y-139623349D02*
X159141000Y-139623349D01*
X164212000Y-140023349D02*
X159638000Y-140023349D01*
X165986000Y-137022349D02*
X157864000Y-137022349D01*
X164270000Y-139983349D02*
X159580000Y-139983349D01*
X165552000Y-138503349D02*
X162965000Y-138503349D01*
X165263000Y-138983349D02*
X162965000Y-138983349D01*
X160885000Y-138983349D02*
X158587000Y-138983349D01*
X164325000Y-139943349D02*
X159525000Y-139943349D01*
X160885000Y-137583349D02*
X157958000Y-137583349D01*
X160885000Y-138903349D02*
X158533000Y-138903349D01*
X163477000Y-140423349D02*
X160373000Y-140423349D01*
X165114000Y-139183349D02*
X162965000Y-139183349D01*
X160885000Y-139263349D02*
X158801000Y-139263349D01*
X160885000Y-139103349D02*
X158675000Y-139103349D01*
X164944000Y-139383349D02*
X162965000Y-139383349D01*
X160885000Y-137343349D02*
X157908000Y-137343349D01*
X165949000Y-137302349D02*
X157901000Y-137302349D01*
X160885000Y-139143349D02*
X158705000Y-139143349D01*
X160885000Y-138463349D02*
X158278000Y-138463349D01*
X166002000Y-136782349D02*
X157848000Y-136782349D01*
X164622000Y-139703349D02*
X159228000Y-139703349D01*
X165205000Y-139063349D02*
X162965000Y-139063349D01*
X160885000Y-138143349D02*
X158135000Y-138143349D01*
X164870000Y-139463349D02*
X158980000Y-139463349D01*
X165591000Y-138423349D02*
X162965000Y-138423349D01*
X164430000Y-139863349D02*
X159420000Y-139863349D01*
X164240000Y-132212651D02*
X164240000Y-133012651D01*
X160885000Y-137623349D02*
X157968000Y-137623349D01*
X165919000Y-137463349D02*
X162965000Y-137463349D01*
X163656000Y-140343349D02*
X160194000Y-140343349D01*
X163570000Y-140383349D02*
X160280000Y-140383349D01*
X166005000Y-136662349D02*
X157845000Y-136662349D01*
X163815000Y-140263349D02*
X160035000Y-140263349D01*
X165999000Y-136862349D02*
X157851000Y-136862349D01*
X164529000Y-139783349D02*
X159321000Y-139783349D01*
X160885000Y-137743349D02*
X158000000Y-137743349D01*
X165935000Y-137383349D02*
X162965000Y-137383349D01*
X164576000Y-139743349D02*
X159274000Y-139743349D01*
X164980000Y-139343349D02*
X162965000Y-139343349D01*
X164792000Y-139543349D02*
X159058000Y-139543349D01*
X160885000Y-138423349D02*
X158259000Y-138423349D01*
X165973000Y-137142349D02*
X157877000Y-137142349D01*
X165531000Y-138543349D02*
X162965000Y-138543349D01*
X165802000Y-137903349D02*
X162965000Y-137903349D01*
X165967000Y-137182349D02*
X157883000Y-137182349D01*
X160885000Y-138743349D02*
X158432000Y-138743349D01*
X165290000Y-138943349D02*
X162965000Y-138943349D01*
X160885000Y-137423349D02*
X157923000Y-137423349D01*
X160885000Y-138023349D02*
X158090000Y-138023349D01*
X162693000Y-140663349D02*
X161157000Y-140663349D01*
X165015000Y-139303349D02*
X162965000Y-139303349D01*
X165872000Y-137663349D02*
X162965000Y-137663349D01*
X160885000Y-137503349D02*
X157940000Y-137503349D01*
X163738000Y-140303349D02*
X160112000Y-140303349D01*
X163154000Y-140543349D02*
X160696000Y-140543349D01*
X160885000Y-139223349D02*
X158769000Y-139223349D01*
X164640000Y-132612651D02*
X163840000Y-132612651D01*
X165175000Y-139103349D02*
X162965000Y-139103349D01*
X162458000Y-140703349D02*
X161392000Y-140703349D01*
X165977000Y-137102349D02*
X157873000Y-137102349D01*
X165487000Y-138623349D02*
X162965000Y-138623349D01*
X165699000Y-138183349D02*
X162965000Y-138183349D01*
X165942000Y-137343349D02*
X162965000Y-137343349D01*
X165611000Y-138383349D02*
X162965000Y-138383349D01*
X165682000Y-138223349D02*
X162965000Y-138223349D01*
X160885000Y-138663349D02*
X158385000Y-138663349D01*
X160885000Y-139063349D02*
X158645000Y-139063349D01*
X164027000Y-140143349D02*
X159823000Y-140143349D01*
X166004000Y-136742349D02*
X157846000Y-136742349D01*
X160885000Y-137463349D02*
X157931000Y-137463349D01*
X160885000Y-138263349D02*
X158185000Y-138263349D01*
X165572000Y-138463349D02*
X162965000Y-138463349D01*
X160885000Y-137983349D02*
X158075000Y-137983349D01*
X160885000Y-139303349D02*
X158835000Y-139303349D01*
X165996000Y-136902349D02*
X157854000Y-136902349D01*
X160885000Y-137943349D02*
X158062000Y-137943349D01*
X160885000Y-139383349D02*
X158906000Y-139383349D01*
X162873000Y-140623349D02*
X160977000Y-140623349D01*
X165317000Y-138903349D02*
X162965000Y-138903349D01*
X165369000Y-138823349D02*
X162965000Y-138823349D01*
X165715000Y-138143349D02*
X162965000Y-138143349D01*
X164481000Y-139823349D02*
X159369000Y-139823349D01*
X165746000Y-138063349D02*
X162965000Y-138063349D01*
X165465000Y-138663349D02*
X162965000Y-138663349D01*
X165442000Y-138703349D02*
X162965000Y-138703349D01*
X165990000Y-136982349D02*
X157860000Y-136982349D01*
X160885000Y-138863349D02*
X158507000Y-138863349D01*
X160885000Y-138103349D02*
X158120000Y-138103349D01*
X165418000Y-138743349D02*
X162965000Y-138743349D01*
X164666000Y-139663349D02*
X159184000Y-139663349D01*
X160885000Y-138343349D02*
X158221000Y-138343349D01*
X160885000Y-138943349D02*
X158560000Y-138943349D01*
X165665000Y-138263349D02*
X162965000Y-138263349D01*
X165982000Y-137062349D02*
X157868000Y-137062349D01*
X165730000Y-138103349D02*
X162965000Y-138103349D01*
X164908000Y-139423349D02*
X158942000Y-139423349D01*
X160885000Y-137783349D02*
X158011000Y-137783349D01*
X165234000Y-139023349D02*
X162965000Y-139023349D01*
X160885000Y-139023349D02*
X158616000Y-139023349D01*
X165962000Y-137222349D02*
X157888000Y-137222349D01*
X160885000Y-138303349D02*
X158203000Y-138303349D01*
X165861000Y-137703349D02*
X162965000Y-137703349D01*
X160885000Y-139343349D02*
X158870000Y-139343349D01*
X165827000Y-137823349D02*
X162965000Y-137823349D01*
X160885000Y-138783349D02*
X158456000Y-138783349D01*
X160885000Y-138623349D02*
X158363000Y-138623349D01*
X163378000Y-140463349D02*
X160472000Y-140463349D01*
X160885000Y-138223349D02*
X158168000Y-138223349D01*
X165927000Y-137423349D02*
X162965000Y-137423349D01*
X166001000Y-136822349D02*
X157849000Y-136822349D01*
X166005000Y-136702349D02*
X157845000Y-136702349D01*
X165775000Y-137983349D02*
X162965000Y-137983349D01*
X165892000Y-137583349D02*
X162965000Y-137583349D01*
X166005000Y-136622349D02*
X157845000Y-136622349D01*
X165760000Y-138023349D02*
X162965000Y-138023349D01*
X165788000Y-137943349D02*
X162965000Y-137943349D01*
X160885000Y-137383349D02*
X157915000Y-137383349D01*
X160885000Y-137663349D02*
X157978000Y-137663349D01*
X163889000Y-140223349D02*
X159961000Y-140223349D01*
X164153000Y-140063349D02*
X159697000Y-140063349D01*
X164751000Y-139583349D02*
X159099000Y-139583349D01*
X160885000Y-137703349D02*
X157989000Y-137703349D01*
X165343000Y-138863349D02*
X162965000Y-138863349D01*
X165049000Y-139263349D02*
X162965000Y-139263349D01*
X165509000Y-138583349D02*
X162965000Y-138583349D01*
X160885000Y-138503349D02*
X158298000Y-138503349D01*
X165647000Y-138303349D02*
X162965000Y-138303349D01*
X165850000Y-137743349D02*
X162965000Y-137743349D01*
X165394000Y-138783349D02*
X162965000Y-138783349D01*
X163023000Y-140583349D02*
X160827000Y-140583349D01*
X164379000Y-139903349D02*
X159471000Y-139903349D01*
X160885000Y-137863349D02*
X158036000Y-137863349D01*
X160885000Y-137823349D02*
X158023000Y-137823349D01*
X165901000Y-137543349D02*
X162965000Y-137543349D01*
X160885000Y-138583349D02*
X158341000Y-138583349D01*
X164091000Y-140103349D02*
X159759000Y-140103349D01*
X165993000Y-136942349D02*
X157857000Y-136942349D01*
X160885000Y-138703349D02*
X158408000Y-138703349D01*
X163959000Y-140183349D02*
X159891000Y-140183349D01*
X166045000Y-136622349D02*
G75*
G03*
X166045000Y-136622349I-4120000J0D01*
G01*
%TO.C,U11*%
X98420000Y-115500000D02*
X98420000Y-118330000D01*
X98150000Y-114000000D02*
X98150000Y-115500000D01*
X98150000Y-115500000D02*
X98420000Y-115500000D01*
X105050000Y-114000000D02*
X105050000Y-115500000D01*
X104780000Y-115500000D02*
X104780000Y-116600000D01*
X105050000Y-115500000D02*
X104780000Y-115500000D01*
%TO.C,C14*%
X97295580Y-132590000D02*
X97014420Y-132590000D01*
X97295580Y-131570000D02*
X97014420Y-131570000D01*
%TO.C,U8*%
X163250000Y-149225000D02*
G75*
G03*
X163250000Y-149225000I-4500000J0D01*
G01*
X166785079Y-149225000D02*
G75*
G03*
X166785079Y-149225000I-8035079J0D01*
G01*
%TO.C,D3*%
X206475000Y-118275000D02*
X206475000Y-115990000D01*
X205005000Y-115990000D02*
X205005000Y-118275000D01*
X206475000Y-115990000D02*
X205005000Y-115990000D01*
%TO.C,R10*%
X130287500Y-130412258D02*
X130287500Y-129937742D01*
X131332500Y-130412258D02*
X131332500Y-129937742D01*
%TO.C,U4*%
X190035000Y-133350000D02*
X190035000Y-137210000D01*
X190035000Y-137210000D02*
X189790000Y-137210000D01*
X190035000Y-133350000D02*
X190035000Y-129490000D01*
X178265000Y-129490000D02*
X178510000Y-129490000D01*
X178265000Y-133350000D02*
X178265000Y-129490000D01*
X178265000Y-137210000D02*
X178510000Y-137210000D01*
X189790000Y-129490000D02*
X189790000Y-127675000D01*
X190035000Y-129490000D02*
X189790000Y-129490000D01*
X178265000Y-133350000D02*
X178265000Y-137210000D01*
%TO.C,R17*%
X132317258Y-137907500D02*
X131842742Y-137907500D01*
X132317258Y-138952500D02*
X131842742Y-138952500D01*
%TO.C,R3*%
X135017742Y-117997500D02*
X135492258Y-117997500D01*
X135017742Y-116952500D02*
X135492258Y-116952500D01*
%TO.C,R6*%
X121172500Y-128507258D02*
X121172500Y-128032742D01*
X120127500Y-128507258D02*
X120127500Y-128032742D01*
%TO.C,R2*%
X198517742Y-115682500D02*
X198992258Y-115682500D01*
X198517742Y-116727500D02*
X198992258Y-116727500D01*
%TO.C,J1*%
X139785000Y-108525000D02*
X137125000Y-108525000D01*
X137125000Y-123885000D02*
X137125000Y-122555000D01*
X137125000Y-121285000D02*
X137125000Y-108525000D01*
X139785000Y-121285000D02*
X139785000Y-108525000D01*
X138455000Y-123885000D02*
X137125000Y-123885000D01*
X139785000Y-121285000D02*
X137125000Y-121285000D01*
%TO.C,SW1*%
X131965000Y-114625000D02*
X133465000Y-114625000D01*
X129465000Y-108875000D02*
X129465000Y-113375000D01*
X135965000Y-113375000D02*
X135965000Y-108875000D01*
X133465000Y-107625000D02*
X131965000Y-107625000D01*
%TO.C,C7*%
X118235000Y-134479420D02*
X118235000Y-134760580D01*
X119255000Y-134479420D02*
X119255000Y-134760580D01*
D10*
%TO.C,U1*%
X193480000Y-119145000D02*
X193835000Y-119145000D01*
X204030000Y-119145000D02*
X203675000Y-119145000D01*
X193755000Y-124695000D02*
X193755000Y-126220000D01*
X193480000Y-124695000D02*
X193755000Y-124695000D01*
X204030000Y-124695000D02*
X204030000Y-119145000D01*
X193480000Y-124695000D02*
X193480000Y-119145000D01*
X204030000Y-124695000D02*
X203675000Y-124695000D01*
D11*
%TO.C,U17*%
X98065000Y-128200000D02*
X97795000Y-128200000D01*
X91165000Y-126700000D02*
X91165000Y-128200000D01*
X98065000Y-126700000D02*
X98065000Y-128200000D01*
X91165000Y-128200000D02*
X91435000Y-128200000D01*
X97795000Y-128200000D02*
X97795000Y-129300000D01*
X91435000Y-128200000D02*
X91435000Y-131030000D01*
%TO.C,SW3*%
X170625000Y-109632500D02*
X170625000Y-109862500D01*
X170105000Y-112462500D02*
X170105000Y-112972500D01*
X170105000Y-105962500D02*
X177825000Y-105962500D01*
X170625000Y-112462500D02*
X170625000Y-112972500D01*
X177305000Y-112972500D02*
X177825000Y-112972500D01*
X177305000Y-109632500D02*
X177305000Y-109862500D01*
X177825000Y-112462500D02*
X177825000Y-112972500D01*
X172265000Y-109632500D02*
X175665000Y-109632500D01*
X170625000Y-109632500D02*
X171165000Y-109632500D01*
X177305000Y-112462500D02*
X177305000Y-112972500D01*
X170105000Y-112972500D02*
X170625000Y-112972500D01*
X176765000Y-109632500D02*
X177305000Y-109632500D01*
X177825000Y-105962500D02*
X177825000Y-109862500D01*
X170105000Y-105962500D02*
X170105000Y-109862500D01*
%TO.C,C12*%
X106185580Y-132590000D02*
X105904420Y-132590000D01*
X106185580Y-131570000D02*
X105904420Y-131570000D01*
%TO.C,U5*%
X198810000Y-149225000D02*
G75*
G03*
X198810000Y-149225000I-4500000J0D01*
G01*
X202345079Y-149225000D02*
G75*
G03*
X202345079Y-149225000I-8035079J0D01*
G01*
%TD*%
%LPC*%
D12*
%TO.C,R15*%
X162765000Y-109855000D03*
X166165000Y-109855000D03*
%TD*%
D13*
%TO.C,R11*%
X120650000Y-134430000D03*
X120650000Y-136080000D03*
%TD*%
D14*
%TO.C,H2*%
X207945056Y-112187056D03*
X203848000Y-110490000D03*
X208648000Y-110490000D03*
X204550944Y-108792944D03*
X207945056Y-108792944D03*
X206248000Y-108090000D03*
X204550944Y-112187056D03*
X206248000Y-112890000D03*
D15*
X206248000Y-110490000D03*
%TD*%
D16*
%TO.C,R21*%
X91440000Y-134493000D03*
D17*
X91440000Y-149733000D03*
%TD*%
D16*
%TO.C,R22*%
X95250000Y-134493000D03*
D17*
X95250000Y-149733000D03*
%TD*%
D14*
%TO.C,H1*%
X203848000Y-154051000D03*
X204550944Y-152353944D03*
X208648000Y-154051000D03*
X204550944Y-155748056D03*
X206248000Y-156451000D03*
X207945056Y-155748056D03*
X206248000Y-151651000D03*
D15*
X206248000Y-154051000D03*
D14*
X207945056Y-152353944D03*
%TD*%
D13*
%TO.C,R16*%
X168275000Y-109030000D03*
X168275000Y-110680000D03*
%TD*%
%TO.C,R9*%
X118745000Y-130620000D03*
X118745000Y-132270000D03*
%TD*%
D18*
%TO.C,RV2*%
X154230000Y-128285000D03*
X151690000Y-130825000D03*
X154230000Y-133365000D03*
%TD*%
D19*
%TO.C,R4*%
X134430000Y-120015000D03*
X136080000Y-120015000D03*
%TD*%
D20*
%TO.C,SW5*%
X200335000Y-111152500D03*
X193325000Y-111152500D03*
D21*
X194575000Y-108662500D03*
X199075000Y-108662500D03*
%TD*%
D22*
%TO.C,D2*%
X148590000Y-129795000D03*
X148590000Y-133095000D03*
%TD*%
D23*
%TO.C,L1*%
X137145000Y-134620000D03*
X144795000Y-134620000D03*
%TD*%
D19*
%TO.C,R5*%
X168720000Y-121285000D03*
X170370000Y-121285000D03*
%TD*%
D14*
%TO.C,H3*%
X95872000Y-110490000D03*
X95169056Y-108792944D03*
X93472000Y-112890000D03*
D15*
X93472000Y-110490000D03*
D14*
X93472000Y-108090000D03*
X91774944Y-108792944D03*
X91774944Y-112187056D03*
X95169056Y-112187056D03*
X91072000Y-110490000D03*
%TD*%
D13*
%TO.C,R13*%
X148590000Y-135065000D03*
X148590000Y-136715000D03*
%TD*%
D24*
%TO.C,C4*%
X109715000Y-132080000D03*
X111265000Y-132080000D03*
%TD*%
D16*
%TO.C,R19*%
X168275000Y-140970000D03*
D17*
X168275000Y-156210000D03*
%TD*%
D25*
%TO.C,U12*%
X126440000Y-146225000D03*
X124440000Y-144975000D03*
X121940000Y-144975000D03*
X119940000Y-145975000D03*
X118940000Y-147975000D03*
X118940000Y-150475000D03*
X119940000Y-152475000D03*
X121940000Y-153475000D03*
X124440000Y-153475000D03*
X126440000Y-152475000D03*
X127440000Y-150475000D03*
X127440000Y-147975000D03*
%TD*%
D26*
%TO.C,C11*%
X114440000Y-119380000D03*
X112890000Y-119380000D03*
%TD*%
D27*
%TO.C,C5*%
X118745000Y-127495000D03*
X118745000Y-129045000D03*
%TD*%
D16*
%TO.C,R18*%
X208407000Y-134239000D03*
D17*
X208407000Y-149479000D03*
%TD*%
D28*
%TO.C,D1*%
X175005000Y-121285000D03*
X171705000Y-121285000D03*
%TD*%
D24*
%TO.C,C8*%
X101320000Y-132080000D03*
X102870000Y-132080000D03*
%TD*%
D29*
%TO.C,C1*%
X126617349Y-121920000D03*
D16*
X130117349Y-121920000D03*
%TD*%
D18*
%TO.C,RV1*%
X165810000Y-119365000D03*
X168350000Y-116825000D03*
X165810000Y-114285000D03*
%TD*%
D13*
%TO.C,R14*%
X148590000Y-138050000D03*
X148590000Y-139700000D03*
%TD*%
D24*
%TO.C,C3*%
X98920000Y-119380000D03*
X100470000Y-119380000D03*
%TD*%
%TO.C,C10*%
X109080000Y-119380000D03*
X110630000Y-119380000D03*
%TD*%
D16*
%TO.C,R8*%
X204978000Y-134239000D03*
D17*
X204978000Y-149479000D03*
%TD*%
D30*
%TO.C,J3*%
X122242500Y-115570000D03*
D31*
X122242500Y-109570000D03*
D32*
X117542500Y-112570000D03*
%TD*%
D25*
%TO.C,U14*%
X109930000Y-146225000D03*
X107930000Y-144975000D03*
X105430000Y-144975000D03*
X103430000Y-145975000D03*
X102430000Y-147975000D03*
X102430000Y-150475000D03*
X103430000Y-152475000D03*
X105430000Y-153475000D03*
X107930000Y-153475000D03*
X109930000Y-152475000D03*
X110930000Y-150475000D03*
X110930000Y-147975000D03*
%TD*%
D26*
%TO.C,C6*%
X104280000Y-119380000D03*
X102730000Y-119380000D03*
%TD*%
D33*
%TO.C,U15*%
X109480000Y-117230000D03*
D34*
X111760000Y-110930000D03*
D33*
X114040000Y-117230000D03*
%TD*%
D16*
%TO.C,R20*%
X132715000Y-141224000D03*
D17*
X132715000Y-156464000D03*
%TD*%
D19*
%TO.C,R12*%
X131255000Y-136525000D03*
X132905000Y-136525000D03*
%TD*%
D25*
%TO.C,U9*%
X145490000Y-146225000D03*
X143490000Y-144975000D03*
X140990000Y-144975000D03*
X138990000Y-145975000D03*
X137990000Y-147975000D03*
X137990000Y-150475000D03*
X138990000Y-152475000D03*
X140990000Y-153475000D03*
X143490000Y-153475000D03*
X145490000Y-152475000D03*
X146490000Y-150475000D03*
X146490000Y-147975000D03*
%TD*%
D35*
%TO.C,U6*%
X167640000Y-138000000D03*
X168910000Y-138000000D03*
X170180000Y-138000000D03*
X171450000Y-138000000D03*
X172720000Y-138000000D03*
X173990000Y-138000000D03*
X175260000Y-138000000D03*
X176530000Y-138000000D03*
X176530000Y-128700000D03*
X175260000Y-128700000D03*
X173990000Y-128700000D03*
X172720000Y-128700000D03*
X171450000Y-128700000D03*
X170180000Y-128700000D03*
X168910000Y-128700000D03*
X167640000Y-128700000D03*
%TD*%
D36*
%TO.C,R7*%
X205740000Y-121475000D03*
X205740000Y-119825000D03*
%TD*%
D19*
%TO.C,R1*%
X195390000Y-114300000D03*
X197040000Y-114300000D03*
%TD*%
D33*
%TO.C,U16*%
X110115000Y-129930000D03*
D34*
X112395000Y-123630000D03*
D33*
X114675000Y-129930000D03*
%TD*%
%TO.C,U10*%
X101225000Y-129930000D03*
D34*
X103505000Y-123630000D03*
D33*
X105785000Y-129930000D03*
%TD*%
D26*
%TO.C,C13*%
X115075000Y-132080000D03*
X113525000Y-132080000D03*
%TD*%
D25*
%TO.C,U7*%
X181050000Y-146225000D03*
X179050000Y-144975000D03*
X176550000Y-144975000D03*
X174550000Y-145975000D03*
X173550000Y-147975000D03*
X173550000Y-150475000D03*
X174550000Y-152475000D03*
X176550000Y-153475000D03*
X179050000Y-153475000D03*
X181050000Y-152475000D03*
X182050000Y-150475000D03*
X182050000Y-147975000D03*
%TD*%
D24*
%TO.C,C2*%
X92570000Y-132080000D03*
X94120000Y-132080000D03*
%TD*%
D37*
%TO.C,U2*%
X142630000Y-106680000D03*
X142630000Y-107950000D03*
X142630000Y-109220000D03*
X142630000Y-110490000D03*
X142630000Y-111760000D03*
X142630000Y-113030000D03*
X142630000Y-114300000D03*
X142630000Y-115570000D03*
X142630000Y-116840000D03*
X142630000Y-118110000D03*
X142630000Y-119380000D03*
X142630000Y-120650000D03*
X142630000Y-121920000D03*
X142630000Y-123190000D03*
D38*
X145415000Y-124190000D03*
X146685000Y-124190000D03*
X147955000Y-124190000D03*
X149225000Y-124190000D03*
X150495000Y-124190000D03*
X151765000Y-124190000D03*
X153035000Y-124190000D03*
X154305000Y-124190000D03*
X155575000Y-124190000D03*
X156845000Y-124190000D03*
D37*
X159630000Y-123190000D03*
X159630000Y-121920000D03*
X159630000Y-120650000D03*
X159630000Y-119380000D03*
X159630000Y-118110000D03*
X159630000Y-116840000D03*
X159630000Y-115570000D03*
X159630000Y-114300000D03*
X159630000Y-113030000D03*
X159630000Y-111760000D03*
X159630000Y-110490000D03*
X159630000Y-109220000D03*
X159630000Y-107950000D03*
X159630000Y-106680000D03*
D39*
X150130000Y-114180000D03*
%TD*%
D40*
%TO.C,U13*%
X123155000Y-127635000D03*
X123155000Y-128905000D03*
X123155000Y-130175000D03*
X123155000Y-131445000D03*
X123155000Y-132715000D03*
X123155000Y-133985000D03*
X123155000Y-135255000D03*
X123155000Y-136525000D03*
X128305000Y-136525000D03*
X128305000Y-135255000D03*
X128305000Y-133985000D03*
X128305000Y-132715000D03*
X128305000Y-131445000D03*
X128305000Y-130175000D03*
X128305000Y-128905000D03*
X128305000Y-127635000D03*
%TD*%
D41*
%TO.C,BT1*%
X179450000Y-121250000D03*
X179450000Y-120050000D03*
%TD*%
D42*
%TO.C,Q1*%
X141605000Y-126625000D03*
D43*
X139065000Y-126625000D03*
X136525000Y-126625000D03*
%TD*%
D20*
%TO.C,SW4*%
X181895000Y-111152500D03*
X188905000Y-111152500D03*
D21*
X183145000Y-108662500D03*
X187645000Y-108662500D03*
%TD*%
D44*
%TO.C,U3*%
X201930000Y-128700000D03*
X200660000Y-128700000D03*
X199390000Y-128700000D03*
X198120000Y-128700000D03*
X196850000Y-128700000D03*
X195580000Y-128700000D03*
X194310000Y-128700000D03*
X193040000Y-128700000D03*
X191770000Y-128700000D03*
X191770000Y-138000000D03*
X193040000Y-138000000D03*
X194310000Y-138000000D03*
X195580000Y-138000000D03*
X196850000Y-138000000D03*
X198120000Y-138000000D03*
X199390000Y-138000000D03*
X200660000Y-138000000D03*
X201930000Y-138000000D03*
%TD*%
D29*
%TO.C,C9*%
X161925000Y-134872349D03*
D16*
X161925000Y-138372349D03*
%TD*%
D33*
%TO.C,U11*%
X99320000Y-117230000D03*
D34*
X101600000Y-110930000D03*
D33*
X103880000Y-117230000D03*
%TD*%
D26*
%TO.C,C14*%
X97930000Y-132080000D03*
X96380000Y-132080000D03*
%TD*%
D25*
%TO.C,U8*%
X162000000Y-146225000D03*
X160000000Y-144975000D03*
X157500000Y-144975000D03*
X155500000Y-145975000D03*
X154500000Y-147975000D03*
X154500000Y-150475000D03*
X155500000Y-152475000D03*
X157500000Y-153475000D03*
X160000000Y-153475000D03*
X162000000Y-152475000D03*
X163000000Y-150475000D03*
X163000000Y-147975000D03*
%TD*%
D45*
%TO.C,D3*%
X205740000Y-116687500D03*
X205740000Y-118262500D03*
%TD*%
D36*
%TO.C,R10*%
X130810000Y-131000000D03*
X130810000Y-129350000D03*
%TD*%
D44*
%TO.C,U4*%
X189230000Y-128700000D03*
X187960000Y-128700000D03*
X186690000Y-128700000D03*
X185420000Y-128700000D03*
X184150000Y-128700000D03*
X182880000Y-128700000D03*
X181610000Y-128700000D03*
X180340000Y-128700000D03*
X179070000Y-128700000D03*
X179070000Y-138000000D03*
X180340000Y-138000000D03*
X181610000Y-138000000D03*
X182880000Y-138000000D03*
X184150000Y-138000000D03*
X185420000Y-138000000D03*
X186690000Y-138000000D03*
X187960000Y-138000000D03*
X189230000Y-138000000D03*
%TD*%
D46*
%TO.C,R17*%
X132905000Y-138430000D03*
X131255000Y-138430000D03*
%TD*%
D19*
%TO.C,R3*%
X134430000Y-117475000D03*
X136080000Y-117475000D03*
%TD*%
D36*
%TO.C,R6*%
X120650000Y-129095000D03*
X120650000Y-127445000D03*
%TD*%
D19*
%TO.C,R2*%
X197930000Y-116205000D03*
X199580000Y-116205000D03*
%TD*%
D47*
%TO.C,J1*%
X138455000Y-122555000D03*
D48*
X138455000Y-120015000D03*
X138455000Y-117475000D03*
X138455000Y-114935000D03*
X138455000Y-112395000D03*
X138455000Y-109855000D03*
%TD*%
D49*
%TO.C,SW1*%
X130465000Y-114375000D03*
X130465000Y-107875000D03*
X134965000Y-107875000D03*
X134965000Y-114375000D03*
%TD*%
D27*
%TO.C,C7*%
X118745000Y-133845000D03*
X118745000Y-135395000D03*
%TD*%
D14*
%TO.C,H4*%
X91072000Y-154051000D03*
X93472000Y-151651000D03*
X95169056Y-152353944D03*
X91774944Y-155748056D03*
X91774944Y-152353944D03*
X95169056Y-155748056D03*
X93472000Y-156451000D03*
D15*
X93472000Y-154051000D03*
D14*
X95872000Y-154051000D03*
%TD*%
D50*
%TO.C,U1*%
X194310000Y-125470000D03*
X195580000Y-125470000D03*
X196850000Y-125470000D03*
X198120000Y-125470000D03*
X199390000Y-125470000D03*
X200660000Y-125470000D03*
X201930000Y-125470000D03*
X203200000Y-125470000D03*
X203200000Y-118370000D03*
X201930000Y-118370000D03*
X200660000Y-118370000D03*
X199390000Y-118370000D03*
X198120000Y-118370000D03*
X196850000Y-118370000D03*
X195580000Y-118370000D03*
X194310000Y-118370000D03*
%TD*%
D33*
%TO.C,U17*%
X92335000Y-129930000D03*
D34*
X94615000Y-123630000D03*
D33*
X96895000Y-129930000D03*
%TD*%
D20*
%TO.C,SW3*%
X170465000Y-111152500D03*
X177475000Y-111152500D03*
D21*
X171715000Y-108662500D03*
X176215000Y-108662500D03*
%TD*%
D26*
%TO.C,C12*%
X106820000Y-132080000D03*
X105270000Y-132080000D03*
%TD*%
D25*
%TO.C,U5*%
X197560000Y-146225000D03*
X195560000Y-144975000D03*
X193060000Y-144975000D03*
X191060000Y-145975000D03*
X190060000Y-147975000D03*
X190060000Y-150475000D03*
X191060000Y-152475000D03*
X193060000Y-153475000D03*
X195560000Y-153475000D03*
X197560000Y-152475000D03*
X198560000Y-150475000D03*
X198560000Y-147975000D03*
%TD*%
M02*
