%TF.GenerationSoftware,KiCad,Pcbnew,(6.0.4)*%
%TF.CreationDate,2023-03-05T21:30:01+09:00*%
%TF.ProjectId,VFD__esp32,56464442-0865-4737-9033-322e6b696361,rev?*%
%TF.SameCoordinates,Original*%
%TF.FileFunction,Paste,Top*%
%TF.FilePolarity,Positive*%
%FSLAX46Y46*%
G04 Gerber Fmt 4.6, Leading zero omitted, Abs format (unit mm)*
G04 Created by KiCad (PCBNEW (6.0.4)) date 2023-03-05 21:30:01*
%MOMM*%
%LPD*%
G01*
G04 APERTURE LIST*
G04 Aperture macros list*
%AMRoundRect*
0 Rectangle with rounded corners*
0 $1 Rounding radius*
0 $2 $3 $4 $5 $6 $7 $8 $9 X,Y pos of 4 corners*
0 Add a 4 corners polygon primitive as box body*
4,1,4,$2,$3,$4,$5,$6,$7,$8,$9,$2,$3,0*
0 Add four circle primitives for the rounded corners*
1,1,$1+$1,$2,$3*
1,1,$1+$1,$4,$5*
1,1,$1+$1,$6,$7*
1,1,$1+$1,$8,$9*
0 Add four rect primitives between the rounded corners*
20,1,$1+$1,$2,$3,$4,$5,0*
20,1,$1+$1,$4,$5,$6,$7,0*
20,1,$1+$1,$6,$7,$8,$9,0*
20,1,$1+$1,$8,$9,$2,$3,0*%
G04 Aperture macros list end*
%ADD10RoundRect,0.200000X-0.275000X0.200000X-0.275000X-0.200000X0.275000X-0.200000X0.275000X0.200000X0*%
%ADD11RoundRect,0.200000X-0.200000X-0.275000X0.200000X-0.275000X0.200000X0.275000X-0.200000X0.275000X0*%
%ADD12R,1.200000X0.900000*%
%ADD13R,3.850000X4.000000*%
%ADD14RoundRect,0.225000X-0.225000X-0.250000X0.225000X-0.250000X0.225000X0.250000X-0.225000X0.250000X0*%
%ADD15RoundRect,0.225000X0.225000X0.250000X-0.225000X0.250000X-0.225000X-0.250000X0.225000X-0.250000X0*%
%ADD16RoundRect,0.225000X-0.250000X0.225000X-0.250000X-0.225000X0.250000X-0.225000X0.250000X0.225000X0*%
%ADD17R,0.900000X1.200000*%
%ADD18R,2.750000X3.050000*%
%ADD19R,1.200000X2.200000*%
%ADD20RoundRect,0.150000X0.150000X-0.875000X0.150000X0.875000X-0.150000X0.875000X-0.150000X-0.875000X0*%
%ADD21RoundRect,0.200000X0.275000X-0.200000X0.275000X0.200000X-0.275000X0.200000X-0.275000X-0.200000X0*%
%ADD22R,2.000000X0.900000*%
%ADD23R,0.900000X2.000000*%
%ADD24R,5.000000X5.000000*%
%ADD25RoundRect,0.150000X-0.725000X-0.150000X0.725000X-0.150000X0.725000X0.150000X-0.725000X0.150000X0*%
%ADD26RoundRect,0.187500X0.812500X0.187500X-0.812500X0.187500X-0.812500X-0.187500X0.812500X-0.187500X0*%
%ADD27RoundRect,0.150000X-0.150000X0.875000X-0.150000X-0.875000X0.150000X-0.875000X0.150000X0.875000X0*%
%ADD28RoundRect,0.218750X-0.256250X0.218750X-0.256250X-0.218750X0.256250X-0.218750X0.256250X0.218750X0*%
%ADD29RoundRect,0.200000X0.200000X0.275000X-0.200000X0.275000X-0.200000X-0.275000X0.200000X-0.275000X0*%
%ADD30R,0.600000X1.500000*%
G04 APERTURE END LIST*
D10*
%TO.C,R11*%
X120650000Y-134430000D03*
X120650000Y-136080000D03*
%TD*%
%TO.C,R16*%
X168275000Y-109030000D03*
X168275000Y-110680000D03*
%TD*%
%TO.C,R9*%
X118745000Y-130620000D03*
X118745000Y-132270000D03*
%TD*%
D11*
%TO.C,R4*%
X134430000Y-120015000D03*
X136080000Y-120015000D03*
%TD*%
D12*
%TO.C,D2*%
X148590000Y-129795000D03*
X148590000Y-133095000D03*
%TD*%
D13*
%TO.C,L1*%
X137145000Y-134620000D03*
X144795000Y-134620000D03*
%TD*%
D11*
%TO.C,R5*%
X168720000Y-121285000D03*
X170370000Y-121285000D03*
%TD*%
D10*
%TO.C,R13*%
X148590000Y-135065000D03*
X148590000Y-136715000D03*
%TD*%
D14*
%TO.C,C4*%
X109715000Y-132080000D03*
X111265000Y-132080000D03*
%TD*%
D15*
%TO.C,C11*%
X114440000Y-119380000D03*
X112890000Y-119380000D03*
%TD*%
D16*
%TO.C,C5*%
X118745000Y-127495000D03*
X118745000Y-129045000D03*
%TD*%
D17*
%TO.C,D1*%
X175005000Y-121285000D03*
X171705000Y-121285000D03*
%TD*%
D14*
%TO.C,C8*%
X101320000Y-132080000D03*
X102870000Y-132080000D03*
%TD*%
D10*
%TO.C,R14*%
X148590000Y-138050000D03*
X148590000Y-139700000D03*
%TD*%
D14*
%TO.C,C3*%
X98920000Y-119380000D03*
X100470000Y-119380000D03*
%TD*%
%TO.C,C10*%
X109080000Y-119380000D03*
X110630000Y-119380000D03*
%TD*%
D15*
%TO.C,C6*%
X104280000Y-119380000D03*
X102730000Y-119380000D03*
%TD*%
D18*
%TO.C,U15*%
X110235000Y-112605000D03*
X113285000Y-112605000D03*
X110235000Y-109255000D03*
X113285000Y-109255000D03*
D19*
X109480000Y-117230000D03*
X114040000Y-117230000D03*
%TD*%
D11*
%TO.C,R12*%
X131255000Y-136525000D03*
X132905000Y-136525000D03*
%TD*%
D20*
%TO.C,U6*%
X167640000Y-138000000D03*
X168910000Y-138000000D03*
X170180000Y-138000000D03*
X171450000Y-138000000D03*
X172720000Y-138000000D03*
X173990000Y-138000000D03*
X175260000Y-138000000D03*
X176530000Y-138000000D03*
X176530000Y-128700000D03*
X175260000Y-128700000D03*
X173990000Y-128700000D03*
X172720000Y-128700000D03*
X171450000Y-128700000D03*
X170180000Y-128700000D03*
X168910000Y-128700000D03*
X167640000Y-128700000D03*
%TD*%
D21*
%TO.C,R7*%
X205740000Y-121475000D03*
X205740000Y-119825000D03*
%TD*%
D11*
%TO.C,R1*%
X195390000Y-114300000D03*
X197040000Y-114300000D03*
%TD*%
D18*
%TO.C,U16*%
X110870000Y-125305000D03*
X113920000Y-125305000D03*
X110870000Y-121955000D03*
X113920000Y-121955000D03*
D19*
X110115000Y-129930000D03*
X114675000Y-129930000D03*
%TD*%
D18*
%TO.C,U10*%
X101980000Y-125305000D03*
X101980000Y-121955000D03*
X105030000Y-125305000D03*
X105030000Y-121955000D03*
D19*
X101225000Y-129930000D03*
X105785000Y-129930000D03*
%TD*%
D15*
%TO.C,C13*%
X115075000Y-132080000D03*
X113525000Y-132080000D03*
%TD*%
D14*
%TO.C,C2*%
X92570000Y-132080000D03*
X94120000Y-132080000D03*
%TD*%
D22*
%TO.C,U2*%
X142630000Y-106680000D03*
X142630000Y-107950000D03*
X142630000Y-109220000D03*
X142630000Y-110490000D03*
X142630000Y-111760000D03*
X142630000Y-113030000D03*
X142630000Y-114300000D03*
X142630000Y-115570000D03*
X142630000Y-116840000D03*
X142630000Y-118110000D03*
X142630000Y-119380000D03*
X142630000Y-120650000D03*
X142630000Y-121920000D03*
X142630000Y-123190000D03*
D23*
X145415000Y-124190000D03*
X146685000Y-124190000D03*
X147955000Y-124190000D03*
X149225000Y-124190000D03*
X150495000Y-124190000D03*
X151765000Y-124190000D03*
X153035000Y-124190000D03*
X154305000Y-124190000D03*
X155575000Y-124190000D03*
X156845000Y-124190000D03*
D22*
X159630000Y-123190000D03*
X159630000Y-121920000D03*
X159630000Y-120650000D03*
X159630000Y-119380000D03*
X159630000Y-118110000D03*
X159630000Y-116840000D03*
X159630000Y-115570000D03*
X159630000Y-114300000D03*
X159630000Y-113030000D03*
X159630000Y-111760000D03*
X159630000Y-110490000D03*
X159630000Y-109220000D03*
X159630000Y-107950000D03*
X159630000Y-106680000D03*
D24*
X150130000Y-114180000D03*
%TD*%
D25*
%TO.C,U13*%
X123155000Y-127635000D03*
X123155000Y-128905000D03*
X123155000Y-130175000D03*
X123155000Y-131445000D03*
X123155000Y-132715000D03*
X123155000Y-133985000D03*
X123155000Y-135255000D03*
X123155000Y-136525000D03*
X128305000Y-136525000D03*
X128305000Y-135255000D03*
X128305000Y-133985000D03*
X128305000Y-132715000D03*
X128305000Y-131445000D03*
X128305000Y-130175000D03*
X128305000Y-128905000D03*
X128305000Y-127635000D03*
%TD*%
D26*
%TO.C,BT1*%
X179450000Y-121250000D03*
X179450000Y-120050000D03*
%TD*%
D27*
%TO.C,U3*%
X201930000Y-128700000D03*
X200660000Y-128700000D03*
X199390000Y-128700000D03*
X198120000Y-128700000D03*
X196850000Y-128700000D03*
X195580000Y-128700000D03*
X194310000Y-128700000D03*
X193040000Y-128700000D03*
X191770000Y-128700000D03*
X191770000Y-138000000D03*
X193040000Y-138000000D03*
X194310000Y-138000000D03*
X195580000Y-138000000D03*
X196850000Y-138000000D03*
X198120000Y-138000000D03*
X199390000Y-138000000D03*
X200660000Y-138000000D03*
X201930000Y-138000000D03*
%TD*%
D18*
%TO.C,U11*%
X100075000Y-112605000D03*
X103125000Y-109255000D03*
X103125000Y-112605000D03*
X100075000Y-109255000D03*
D19*
X99320000Y-117230000D03*
X103880000Y-117230000D03*
%TD*%
D15*
%TO.C,C14*%
X97930000Y-132080000D03*
X96380000Y-132080000D03*
%TD*%
D28*
%TO.C,D3*%
X205740000Y-116687500D03*
X205740000Y-118262500D03*
%TD*%
D21*
%TO.C,R10*%
X130810000Y-131000000D03*
X130810000Y-129350000D03*
%TD*%
D27*
%TO.C,U4*%
X189230000Y-128700000D03*
X187960000Y-128700000D03*
X186690000Y-128700000D03*
X185420000Y-128700000D03*
X184150000Y-128700000D03*
X182880000Y-128700000D03*
X181610000Y-128700000D03*
X180340000Y-128700000D03*
X179070000Y-128700000D03*
X179070000Y-138000000D03*
X180340000Y-138000000D03*
X181610000Y-138000000D03*
X182880000Y-138000000D03*
X184150000Y-138000000D03*
X185420000Y-138000000D03*
X186690000Y-138000000D03*
X187960000Y-138000000D03*
X189230000Y-138000000D03*
%TD*%
D29*
%TO.C,R17*%
X132905000Y-138430000D03*
X131255000Y-138430000D03*
%TD*%
D11*
%TO.C,R3*%
X134430000Y-117475000D03*
X136080000Y-117475000D03*
%TD*%
D21*
%TO.C,R6*%
X120650000Y-129095000D03*
X120650000Y-127445000D03*
%TD*%
D11*
%TO.C,R2*%
X197930000Y-116205000D03*
X199580000Y-116205000D03*
%TD*%
D16*
%TO.C,C7*%
X118745000Y-133845000D03*
X118745000Y-135395000D03*
%TD*%
D30*
%TO.C,U1*%
X194310000Y-125470000D03*
X195580000Y-125470000D03*
X196850000Y-125470000D03*
X198120000Y-125470000D03*
X199390000Y-125470000D03*
X200660000Y-125470000D03*
X201930000Y-125470000D03*
X203200000Y-125470000D03*
X203200000Y-118370000D03*
X201930000Y-118370000D03*
X200660000Y-118370000D03*
X199390000Y-118370000D03*
X198120000Y-118370000D03*
X196850000Y-118370000D03*
X195580000Y-118370000D03*
X194310000Y-118370000D03*
%TD*%
D18*
%TO.C,U17*%
X93090000Y-121955000D03*
X96140000Y-125305000D03*
X96140000Y-121955000D03*
X93090000Y-125305000D03*
D19*
X92335000Y-129930000D03*
X96895000Y-129930000D03*
%TD*%
D15*
%TO.C,C12*%
X106820000Y-132080000D03*
X105270000Y-132080000D03*
%TD*%
M02*
